<svg width="83" height="98" viewBox="0 0 83 98" xmlns="http://www.w3.org/2000/svg"><path d="M0 21.029L42.452 0l40.256 21.029v11.015L46.743 35.96v1.2l33.704 4.443V55.82L46.743 60.3v3.65l33.704 4.492v9.244L41.354 97.722 0 79.458v-58.43zM42.08 1.984v15.084l39.244 12.955v-7.908L42.08 1.984zm37.036 68.512l-37.762 12.7V94.35L79.116 76.44v-5.944zm-.429-27.606l-38.5-4.661v19.925l38.5-4.131V42.89zm-53.576-2.275h-5.19v16.168l5.19-.733V40.615zM44.81 64.132v-3.037l-4.813.674-14.798-1.722V58.38l-5.31.746-9.483-1.313V40.29l9.483-1.104h5.31v-1.053l14.798-1.815 4.813.43v-.722L3.8 30.358v39.637l41.01-5.863z" fill-rule="evenodd"/></svg>