<svg width="89" height="100" viewBox="0 0 89 100" xmlns="http://www.w3.org/2000/svg"><path d="M.133 68.54l10.018-2.422V18.545l5.781-2.832 5.535 1.371V5.14L31.865.206 66.74 13.75v38.79h7.614v14.468l13.867 1.531v9.216L43.446 99.89.133 77.756V68.54zm15.834-50.695v50.702l5.408-1.02v-48.69l-5.408-.992zm56.582 35.64L43.48 56.297V77.92l29.07-8.877v-15.56zM43.207 84.581v13.654l43.578-21.248v-7.594L43.207 84.582zm22.003-69.85L32.031 2.178v72.098l3.113-.846V55.083l30.066-2.366V14.731z" fill-rule="evenodd"/></svg>