<svg width="84" height="102" viewBox="0 0 84 102" xmlns="http://www.w3.org/2000/svg"><path d="M.07 21.674l4.383-2.292 4.176 1.002v-3.009l5.337-2.795 5.255 1.538v-4.06l6.441-3.357 7.173 2.325V5.164L41.092.835l42.661 20.984v58.46l-42.66 20.957-8.258-4.293v-5.99l-7.173 2.484-6.44-3.402V85.86l-5.256 1.507-5.337-2.672v-3.148l-4.176.993-4.382-2.262V21.674zM41.127 3.587v94.204l40.936-18.83V23.218L41.126 3.587zm-8.401 9.49l-7.038-2.245v79.404l7.038-2.402V13.078zm-13.705 5l-5.11-1.358v68.282l5.11-1.343V18.077zM8.515 22.205L4.32 21.182V80.19l4.195-1.044V22.205z" fill-rule="evenodd"/></svg>