<svg width="73" height="100" viewBox="0 0 73 100" xmlns="http://www.w3.org/2000/svg"><path d="M72.768 18.015v19.2l-18.66 1.539v11.453h-5.352v43.591L36.055 100l-17.942-8.857v-9.207L5.47 85.166 0 82.188V62.921l18.113-1.938V50.207h5.505V6.032L36.055 0l18.053 8.619v9.396l12.307-3.06 6.353 3.06zM5.738 83.618l23.47-5.787V62.079l-23.47 2.222v19.317zM36.2 98.474l11.17-5.52V48.992h5.476v-9.79l-9.856-.424V21.546l9.856-2.561V9.959L36.2 2.018v96.456zm30.189-81.959v19.689h5.325V19.007l-5.325-2.492z"  fill-rule="evenodd"/></svg>