<svg width="84" height="101" viewBox="0 0 84 101" xmlns="http://www.w3.org/2000/svg"><path d="M.144 78.176V19.742l6.036-2.977 20.927 4.755V7.564L41.517-.03l14.885 7.595V21.52l20.15-4.755 6.728 2.977v58.434l-6.727 2.869-19.717-4.66v16.15l-15.32 7.64-14.41-7.64v-16.15L6.18 81.045l-6.036-2.87zM81.872 20.79l-4.992-2.186V79.16l4.992-1.971V20.79zM54.762 8.464L41.637 1.865v21.479l13.125 3.708V8.464zM41.626 39.166v21.69l13.092-1.625v-18.41l-13.092-1.655zm.099 37.208V98.24l13.703-6.671V72.51l-13.703 3.863zM6.251 18.662v60.514l20.638-4.53v-3.61l14.836-2.44v-5.931L26.889 60.52v-21.08l14.836-2.104v-6.104L26.889 28.91v-5.398L6.25 18.662z" fill-rule="evenodd"/></svg>