<svg width="97" height="58" viewBox="0 0 97 58" xmlns="http://www.w3.org/2000/svg"><g fill-rule="evenodd"><path d="M27.372 20.962c0 1.185.128 2.147.352 2.852.257.705.577 1.474 1.026 2.308.16.256.224.513.224.737 0 .32-.192.641-.609.962l-2.019 1.346c-.288.192-.577.288-.833.288-.32 0-.641-.16-.962-.449a9.916 9.916 0 01-1.154-1.506 24.811 24.811 0 01-.993-1.891c-2.5 2.949-5.641 4.423-9.423 4.423-2.693 0-4.84-.77-6.41-2.308-1.571-1.538-2.372-3.59-2.372-6.153 0-2.725.961-4.936 2.916-6.603 1.956-1.667 4.552-2.5 7.853-2.5 1.09 0 2.211.096 3.397.256s2.404.417 3.686.705v-2.34c0-2.435-.513-4.134-1.506-5.127-1.026-.994-2.757-1.475-5.224-1.475-1.122 0-2.276.128-3.462.417-1.186.288-2.34.64-3.462 1.09a9.197 9.197 0 01-1.121.416 1.966 1.966 0 01-.513.096c-.449 0-.673-.32-.673-.993v-1.57c0-.514.064-.898.224-1.122.16-.225.449-.45.898-.674C8.333 1.571 9.679 1.09 11.25.705c1.57-.417 3.237-.609 5-.609 3.814 0 6.603.866 8.397 2.596 1.763 1.731 2.66 4.36 2.66 7.885v10.385h.065zm-13.013 4.871c1.058 0 2.147-.192 3.301-.577 1.154-.384 2.18-1.09 3.045-2.05.513-.61.898-1.283 1.09-2.052.192-.77.32-1.699.32-2.789V17.02a26.766 26.766 0 00-2.948-.545 24.151 24.151 0 00-3.013-.192c-2.148 0-3.718.417-4.776 1.282-1.057.865-1.57 2.083-1.57 3.686 0 1.506.384 2.628 1.186 3.397.769.802 1.89 1.186 3.365 1.186zm25.737 3.462c-.577 0-.961-.096-1.218-.32-.256-.193-.48-.642-.673-1.25L30.673 2.948c-.192-.641-.288-1.058-.288-1.282 0-.513.256-.802.769-.802h3.14c.61 0 1.027.097 1.25.32.257.193.45.642.642 1.25l5.385 21.219 5-21.218c.16-.641.352-1.058.608-1.25.257-.192.706-.32 1.283-.32h2.564c.609 0 1.025.096 1.282.32.256.192.48.64.609 1.25L57.98 23.91l5.545-21.474c.192-.641.416-1.058.64-1.25.257-.192.674-.32 1.25-.32h2.981c.513 0 .802.256.802.8 0 .16-.032.321-.064.513a4.56 4.56 0 01-.225.802l-7.724 24.775c-.192.641-.417 1.058-.673 1.25-.257.193-.673.32-1.218.32h-2.757c-.609 0-1.025-.095-1.282-.32-.256-.224-.48-.64-.609-1.282L49.68 7.051l-4.935 20.641c-.16.641-.353 1.058-.61 1.282-.256.225-.705.32-1.281.32h-2.757zm41.186.865a21.21 21.21 0 01-4.936-.577c-1.602-.384-2.852-.8-3.686-1.282-.513-.288-.865-.609-.993-.897a2.262 2.262 0 01-.193-.898v-1.634c0-.673.257-.994.738-.994.192 0 .384.032.576.096.193.064.481.193.802.32 1.09.482 2.275.866 3.525 1.123 1.282.256 2.532.384 3.814.384 2.02 0 3.59-.352 4.68-1.057 1.09-.706 1.667-1.731 1.667-3.045 0-.898-.289-1.635-.866-2.244-.577-.609-1.666-1.154-3.237-1.667l-4.647-1.442c-2.34-.737-4.07-1.827-5.129-3.27-1.057-1.41-1.602-2.98-1.602-4.647 0-1.346.288-2.532.865-3.557a8.241 8.241 0 012.308-2.628C75.929 1.506 77.019.962 78.3.577S80.93.032 82.34.032c.705 0 1.442.032 2.147.128.737.096 1.41.225 2.084.353.64.16 1.25.32 1.826.513.577.192 1.026.384 1.347.577.448.256.769.512.961.8.192.257.289.61.289 1.059v1.506c0 .673-.257 1.026-.738 1.026-.256 0-.673-.129-1.218-.385-1.826-.833-3.878-1.25-6.153-1.25-1.827 0-3.27.288-4.263.897-.994.61-1.507 1.539-1.507 2.853 0 .897.32 1.667.962 2.276.64.609 1.827 1.218 3.526 1.762l4.55 1.443c2.309.737 3.975 1.763 4.969 3.077.993 1.314 1.474 2.82 1.474 4.487 0 1.378-.288 2.628-.833 3.718-.577 1.09-1.346 2.051-2.34 2.82-.994.802-2.18 1.379-3.558 1.795-1.442.449-2.948.673-4.583.673z" fill-rule="nonzero"/><path d="M87.34 45.737C76.795 53.526 61.474 57.66 48.3 57.66c-18.461 0-35.096-6.827-47.66-18.173-.994-.897-.096-2.115 1.09-1.41 13.59 7.885 30.352 12.66 47.692 12.66 11.699 0 24.551-2.436 36.378-7.436 1.763-.801 3.27 1.154 1.539 2.436zm4.39-5c-1.345-1.73-8.91-.833-12.339-.416-1.026.128-1.186-.77-.256-1.443 6.025-4.23 15.93-3.013 17.083-1.602 1.154 1.442-.32 11.346-5.962 16.09-.865.737-1.698.352-1.314-.61 1.282-3.173 4.135-10.32 2.789-12.019z"/></g></svg>