<svg width="100" height="100" viewBox="0 0 100 100" xmlns="http://www.w3.org/2000/svg"><path d="M0 87.106V12.893C0 5.773 5.772 0 12.895 0h74.21C94.228 0 100 5.772 100 12.895v74.21C100 94.228 94.228 100 87.105 100h-74.21C5.772 100 0 94.228 0 87.106zm28.153-67.392v60.553H41.5V19.714H28.153zm13.352 10.348l12.503.018c2.67.104 4.535.437 5.594.999 1.37.727 2.164 1.322 2.895 2.808.398.81.61 1.68.61 3.163 0 .228.17 3.58-2.43 5.597-.5.388-1.396.786-2.92 1.273-.52.166-1.442.26-2.767.282H41.505v9.1H54.99c3.555-.02 6.126.608 7.713 1.887.913.735 1.662 1.48 2.153 2.635.3.703.533 1.979.701 3.827-.03 1.021-.09 1.754-.176 2.2-.209 1.079-.624 2.01-.907 2.456-.814 1.284-1.84 2.03-2.716 2.453-.284.136-1.42.683-3.425.998-.618.097-1.732.155-3.343.173H41.505v10.35H56.99c1.63-.056 2.749-.11 3.357-.162 1.754-.15 2.808-.377 3.712-.56 3.642-.74 6.36-2.025 8.266-3.489 1.502-1.154 3.052-2.56 4.166-4.322 1.07-1.693 1.724-3.726 2.163-5.73.464-2.124.054-5.982 0-6.35a16.24 16.24 0 00-1.094-3.974 14.424 14.424 0 00-2.443-3.927c-.806-.91-1.547-1.46-1.786-1.685-.655-.617-1.819-1.314-3.54-2.009-.4-.161-1.072-.395-2.018-.7.504-.26.859-.446 1.066-.561.68-.377 1.155-.678 1.46-.888 1.586-1.088 2.612-2.17 3.171-2.937 2.455-3.362 2.639-7.076 2.501-8.74-.306-3.712-.303-4.748-1.541-6.981-1.658-2.992-2.687-3.69-5.415-5.23-1.673-.945-4.252-1.727-7.815-2.096-1.378-.143-3.775-.218-7.192-.226H41.505v10.348z" fill-rule="evenodd"/></svg>