<svg height='100px' width='100px'  fill="#000000" xmlns="http://www.w3.org/2000/svg" xmlns:xlink="http://www.w3.org/1999/xlink" version="1.1" x="0px" y="0px" viewBox="0 0 100 100" enable-background="new 0 0 100 100" xml:space="preserve"><g><g><path fill="none" d="M48.188,46.987c0,1.356,0.66,1.356,0.942,1.356c0.285,0,0.696-0.111,1.357-0.954l0.608-3.428    c-0.183-0.269-0.43-0.4-0.751-0.4C49.028,43.56,48.188,45.59,48.188,46.987z"></path><path fill="none" d="M21.41,29.007l-11.231,8.988l8.594,5.97l0.707,0.491c0,0,0,0,0,0l27.54,19.132    c0.032,0.022,0.052,0.053,0.077,0.08l2.594-2.075c0.181-0.144,0.438-0.144,0.618,0l2.576,2.06l0.095-0.066l27.54-19.132    c0,0,0,0,0,0l0.815-0.566l8.49-5.898l-7.48-5.989c-0.001,0-0.001-0.001-0.002-0.001l-3.746-2.996L50.003,6.127L21.412,29.006    C21.411,29.006,21.41,29.006,21.41,29.007z M51.34,33.734c6.142,0,10.269,4.149,10.269,10.325c0,5.254-3.499,8.089-6.79,8.089    c-1.526,0-2.761-0.645-3.355-1.697c-0.879,0.851-2.12,1.422-3.19,1.422c-2.475,0-4.139-1.864-4.139-4.637    c0-3.434,2.494-7.26,6.073-7.26c0.817,0,1.481,0.274,1.985,0.816l0.086-0.258c0.067-0.201,0.256-0.338,0.469-0.338h2.512    c0.149,0,0.29,0.067,0.384,0.183c0.094,0.115,0.13,0.267,0.1,0.413l-1.268,6.075c-0.229,0.95-0.112,1.357,0.027,1.532    c0.129,0.164,0.384,0.247,0.758,0.247c1.343,0,2.792-1.711,2.792-4.475c0-2.102-0.686-6.99-7.042-6.99    c-4.278,0-8.895,3.728-8.895,9.751c0,5.587,4.076,7.57,7.567,7.57c1.246,0,2.767-0.391,3.967-1.021    c0.125-0.065,0.27-0.074,0.401-0.026c0.131,0.049,0.236,0.151,0.288,0.281l0.884,2.209c0.093,0.233-0.003,0.499-0.224,0.618    c-1.722,0.933-3.569,1.385-5.647,1.385c-5.455,0-10.959-3.372-10.959-10.905C38.392,39.455,43.958,33.734,51.34,33.734z"></path><path fill="none" d="M49.351,56.958c1.753,0,3.323-0.349,4.786-1.065l-0.52-1.299c-1.243,0.558-2.705,0.895-3.935,0.895    c-3.947,0-8.556-2.242-8.556-8.559c0-6.633,5.131-10.74,9.884-10.74c5.029,0,8.031,2.982,8.031,7.979    c0,3.42-1.922,5.464-3.781,5.464c-0.693,0-1.209-0.21-1.535-0.624c-0.404-0.513-0.474-1.286-0.213-2.361l1.14-5.464h-1.547    l-0.275,0.823c-0.127,0.382-0.798,0.419-0.97,0.054c-0.358-0.759-0.868-1.098-1.652-1.098c-2.996,0-5.084,3.305-5.084,6.271    c0,2.25,1.207,3.648,3.15,3.648c0.998,0,2.251-0.695,2.914-1.617c0.227-0.317,0.849-0.201,0.936,0.178    c0.24,1.041,1.297,1.714,2.695,1.714c2.813,0,5.801-2.488,5.801-7.1c0-5.584-3.729-9.336-9.28-9.336    c-6.93,0-11.959,5.181-11.959,12.319C39.381,54.361,44.752,56.958,49.351,56.958z M51.44,47.68    c-0.014,0.077-0.045,0.15-0.093,0.212c-0.754,0.995-1.438,1.439-2.217,1.439c-0.58,0-1.931-0.228-1.931-2.345    c0-1.805,1.12-4.416,3.146-4.416c0.741,0,1.348,0.378,1.709,1.065c0.051,0.097,0.068,0.209,0.049,0.316L51.44,47.68z"></path><polygon fill="none" points="90.16,38.963 82.474,44.303 81.626,44.892 53.69,64.299 90.16,93.476   "></polygon><polygon fill="none" points="52.555,64.657 51.44,63.766 50,62.613 48.56,63.766 48.558,63.767 10.755,94.011 89.245,94.011     52.555,64.658   "></polygon><polygon fill="none" points="18.209,44.777 17.514,44.294 17.513,44.294 9.84,38.963 9.84,93.476 46.31,64.299   "></polygon><path d="M91.149,38.017c0-0.012-0.008-0.022-0.009-0.034c-0.004-0.064-0.022-0.126-0.052-0.186    c-0.008-0.015-0.011-0.031-0.02-0.046c-0.004-0.005-0.004-0.012-0.007-0.017c-0.025-0.036-0.058-0.059-0.09-0.086    c-0.006-0.005-0.008-0.012-0.014-0.017l-0.021-0.017c-0.008-0.005-0.014-0.013-0.022-0.018l-7.952-6.366    c0,0-0.001-0.001-0.001-0.001l-3.746-2.996L50.312,5.108c-0.181-0.144-0.438-0.144-0.618,0L20.794,28.233    c0,0-0.001,0.001-0.001,0.001L9.102,37.591c-0.022,0.013-0.04,0.03-0.061,0.046c-0.026,0.021-0.05,0.043-0.071,0.069    c-0.009,0.011-0.022,0.017-0.031,0.03c-0.01,0.014-0.011,0.03-0.019,0.045c-0.016,0.029-0.029,0.059-0.04,0.092    c-0.01,0.033-0.017,0.064-0.02,0.098c-0.002,0.016-0.01,0.031-0.01,0.048v56.488c0,0.048,0.014,0.091,0.027,0.135    c0.003,0.01-0.003,0.019,0.001,0.029c0.001,0.004,0.005,0.005,0.007,0.009c0.032,0.085,0.088,0.154,0.158,0.209    c0.015,0.012,0.03,0.021,0.046,0.031C9.165,94.966,9.249,95,9.345,95h81.31c0.096,0,0.18-0.034,0.256-0.082    c0.016-0.01,0.031-0.019,0.046-0.031c0.07-0.055,0.126-0.124,0.158-0.209c0.001-0.004,0.005-0.005,0.007-0.009    c0.003-0.01-0.002-0.019,0.001-0.029c0.013-0.044,0.027-0.087,0.027-0.135V38.017z M81.626,44.892l0.848-0.589l7.687-5.34v54.513    L53.69,64.299L81.626,44.892z M50.003,6.127l28.593,22.878l3.746,2.996c0.001,0,0.001,0.001,0.002,0.001l7.48,5.989l-8.49,5.898    l-0.815,0.566c0,0,0,0,0,0L52.98,63.589l-0.095,0.066l-2.576-2.06c-0.181-0.144-0.438-0.144-0.618,0l-2.594,2.075    c-0.025-0.027-0.045-0.058-0.077-0.08L19.48,44.456c0,0,0,0,0,0l-0.707-0.491l-8.594-5.97l11.231-8.988    c0.001,0,0.001-0.001,0.002-0.001L50.003,6.127z M9.84,38.963l7.674,5.331c0,0,0,0,0,0l0.695,0.483L46.31,64.299L9.84,93.476    V38.963z M10.755,94.011l37.803-30.244c0.001-0.001,0.001-0.001,0.002-0.001L50,62.613l1.44,1.153l1.115,0.891    c0,0,0.001,0,0.001,0l36.69,29.353H10.755z"></path><path d="M50.345,42.571c-2.025,0-3.146,2.611-3.146,4.416c0,2.116,1.351,2.345,1.931,2.345c0.779,0,1.463-0.444,2.217-1.439    c0.047-0.063,0.079-0.135,0.093-0.212l0.662-3.728c0.019-0.108,0.002-0.219-0.049-0.316    C51.693,42.949,51.086,42.571,50.345,42.571z M50.488,47.388c-0.662,0.843-1.072,0.954-1.357,0.954c-0.282,0-0.942,0-0.942-1.356    c0-1.397,0.84-3.427,2.157-3.427c0.321,0,0.568,0.131,0.751,0.4L50.488,47.388z"></path><path d="M49.351,57.947c2.078,0,3.926-0.453,5.647-1.385c0.221-0.119,0.317-0.385,0.224-0.618l-0.884-2.209    c-0.052-0.13-0.157-0.232-0.288-0.281c-0.131-0.048-0.277-0.039-0.401,0.026c-1.201,0.63-2.721,1.021-3.967,1.021    c-3.491,0-7.567-1.982-7.567-7.57c0-6.022,4.617-9.751,8.895-9.751c6.356,0,7.042,4.888,7.042,6.99    c0,2.764-1.449,4.475-2.792,4.475c-0.374,0-0.629-0.083-0.758-0.247c-0.139-0.176-0.256-0.582-0.027-1.532l1.268-6.075    c0.03-0.146-0.006-0.297-0.1-0.413c-0.094-0.115-0.235-0.183-0.384-0.183h-2.512c-0.212,0-0.402,0.136-0.469,0.338l-0.086,0.258    c-0.504-0.542-1.169-0.816-1.985-0.816c-3.579,0-6.073,3.826-6.073,7.26c0,2.774,1.663,4.637,4.139,4.637    c1.07,0,2.311-0.571,3.19-1.422c0.594,1.052,1.829,1.697,3.355,1.697c3.292,0,6.79-2.835,6.79-8.089    c0-6.176-4.127-10.325-10.269-10.325c-7.382,0-12.948,5.721-12.948,13.308C38.392,54.575,43.896,57.947,49.351,57.947z     M51.34,34.723c5.551,0,9.28,3.752,9.28,9.336c0,4.611-2.989,7.1-5.801,7.1c-1.398,0-2.455-0.673-2.695-1.714    c-0.087-0.38-0.709-0.495-0.936-0.178c-0.664,0.922-1.916,1.617-2.914,1.617c-1.943,0-3.15-1.398-3.15-3.648    c0-2.966,2.088-6.271,5.084-6.271c0.784,0,1.293,0.339,1.652,1.098c0.172,0.365,0.842,0.328,0.97-0.054l0.275-0.823h1.547    l-1.14,5.464c-0.26,1.075-0.19,1.848,0.213,2.361c0.326,0.414,0.843,0.624,1.535,0.624c1.859,0,3.781-2.044,3.781-5.464    c0-4.996-3.002-7.979-8.031-7.979c-4.753,0-9.884,4.106-9.884,10.74c0,6.317,4.609,8.559,8.556,8.559    c1.23,0,2.693-0.337,3.935-0.895l0.52,1.299c-1.463,0.716-3.033,1.065-4.786,1.065c-4.599,0-9.97-2.597-9.97-9.916    C39.381,39.904,44.41,34.723,51.34,34.723z"></path></g></g></svg>