<svg height="100" width="100" xmlns="http://www.w3.org/2000/svg" viewBox="0 0 100 100">
    <path fill="none" d="M48.188 46.987c0 1.356.66 1.356.942 1.356.285 0 .696-.111 1.357-.954l.608-3.428a.855.855 0 00-.751-.4c-1.316-.001-2.156 2.029-2.156 3.426z"/>
    <path fill="none" d="M21.41 29.007l-11.231 8.988 8.594 5.97.707.491 27.54 19.132c.032.022.052.053.077.08l2.594-2.075a.496.496 0 01.618 0l2.576 2.06.095-.066 27.54-19.132.815-.566 8.49-5.898-7.48-5.989-.002-.001-3.746-2.996L50.003 6.127 21.412 29.006l-.002.001zm29.93 4.727c6.142 0 10.269 4.149 10.269 10.325 0 5.254-3.499 8.089-6.79 8.089-1.526 0-2.761-.645-3.355-1.697-.879.851-2.12 1.422-3.19 1.422-2.475 0-4.139-1.864-4.139-4.637 0-3.434 2.494-7.26 6.073-7.26.817 0 1.481.274 1.985.816l.086-.258a.495.495 0 01.469-.338h2.512a.494.494 0 01.484.596l-1.268 6.075c-.229.95-.112 1.357.027 1.532.129.164.384.247.758.247 1.343 0 2.792-1.711 2.792-4.475 0-2.102-.686-6.99-7.042-6.99-4.278 0-8.895 3.728-8.895 9.751 0 5.587 4.076 7.57 7.567 7.57 1.246 0 2.767-.391 3.967-1.021a.497.497 0 01.689.255l.884 2.209a.494.494 0 01-.224.618c-1.722.933-3.569 1.385-5.647 1.385-5.455 0-10.959-3.372-10.959-10.905-.001-7.588 5.565-13.309 12.947-13.309z"/>
    <path fill="none" d="M49.351 56.958c1.753 0 3.323-.349 4.786-1.065l-.52-1.299c-1.243.558-2.705.895-3.935.895-3.947 0-8.556-2.242-8.556-8.559 0-6.633 5.131-10.74 9.884-10.74 5.029 0 8.031 2.982 8.031 7.979 0 3.42-1.922 5.464-3.781 5.464-.693 0-1.209-.21-1.535-.624-.404-.513-.474-1.286-.213-2.361l1.14-5.464h-1.547l-.275.823c-.127.382-.798.419-.97.054-.358-.759-.868-1.098-1.652-1.098-2.996 0-5.084 3.305-5.084 6.271 0 2.25 1.207 3.648 3.15 3.648.998 0 2.251-.695 2.914-1.617.227-.317.849-.201.936.178.24 1.041 1.297 1.714 2.695 1.714 2.813 0 5.801-2.488 5.801-7.1 0-5.584-3.729-9.336-9.28-9.336-6.93 0-11.959 5.181-11.959 12.319 0 7.321 5.371 9.918 9.97 9.918zm2.089-9.278a.488.488 0 01-.093.212c-.754.995-1.438 1.439-2.217 1.439-.58 0-1.931-.228-1.931-2.345 0-1.805 1.12-4.416 3.146-4.416.741 0 1.348.378 1.709 1.065a.495.495 0 01.049.316l-.663 3.729zM90.16 38.963l-7.686 5.34-.848.589L53.69 64.299l36.47 29.177zM52.555 64.657l-1.115-.891L50 62.613l-1.44 1.153-.002.001-37.803 30.244h78.49l-36.69-29.353zM18.209 44.777l-.695-.483h-.001L9.84 38.963v54.513l36.47-29.177z"/>
    <path d="M91.149 38.017c0-.012-.008-.022-.009-.034a.48.48 0 00-.052-.186c-.008-.015-.011-.031-.02-.046-.004-.005-.004-.012-.007-.017-.025-.036-.058-.059-.09-.086-.006-.005-.008-.012-.014-.017l-.021-.017c-.008-.005-.014-.013-.022-.018l-7.952-6.366-.001-.001-3.746-2.996L50.312 5.108a.496.496 0 00-.618 0l-28.9 23.125-.001.001-11.691 9.357c-.022.013-.04.03-.061.046a.463.463 0 00-.071.069c-.009.011-.022.017-.031.03-.01.014-.011.03-.019.045a.544.544 0 00-.06.19c-.002.016-.01.031-.01.048v56.488c0 .048.014.091.027.135.003.01-.003.019.001.029.001.004.005.005.007.009a.482.482 0 00.158.209c.015.012.03.021.046.031a.49.49 0 00.256.08h81.31c.096 0 .18-.034.256-.082.016-.01.031-.019.046-.031a.482.482 0 00.158-.209c.001-.004.005-.005.007-.009.003-.01-.002-.019.001-.029.013-.044.027-.087.027-.135V38.017zm-9.523 6.875l.848-.589 7.687-5.34v54.513L53.69 64.299l27.936-19.407zM50.003 6.127l28.593 22.878 3.746 2.996.002.001 7.48 5.989-8.49 5.898-.815.566L52.98 63.589l-.095.066-2.576-2.06a.496.496 0 00-.618 0l-2.594 2.075c-.025-.027-.045-.058-.077-.08L19.48 44.456l-.707-.491-8.594-5.97 11.231-8.988.002-.001L50.003 6.127zM9.84 38.963l7.674 5.331.695.483L46.31 64.299 9.84 93.476V38.963zm.915 55.048l37.803-30.244.002-.001L50 62.613l1.44 1.153 1.115.891h.001l36.69 29.353H10.755z"/>
    <path d="M50.345 42.571c-2.025 0-3.146 2.611-3.146 4.416 0 2.116 1.351 2.345 1.931 2.345.779 0 1.463-.444 2.217-1.439a.505.505 0 00.093-.212l.662-3.728a.494.494 0 00-.049-.316c-.36-.688-.967-1.066-1.708-1.066zm.143 4.817c-.662.843-1.072.954-1.357.954-.282 0-.942 0-.942-1.356 0-1.397.84-3.427 2.157-3.427.321 0 .568.131.751.4l-.609 3.429z"/>
    <path d="M49.351 57.947c2.078 0 3.926-.453 5.647-1.385a.494.494 0 00.224-.618l-.884-2.209a.497.497 0 00-.689-.255c-1.201.63-2.721 1.021-3.967 1.021-3.491 0-7.567-1.982-7.567-7.57 0-6.022 4.617-9.751 8.895-9.751 6.356 0 7.042 4.888 7.042 6.99 0 2.764-1.449 4.475-2.792 4.475-.374 0-.629-.083-.758-.247-.139-.176-.256-.582-.027-1.532l1.268-6.075a.496.496 0 00-.484-.596h-2.512a.495.495 0 00-.469.338l-.086.258c-.504-.542-1.169-.816-1.985-.816-3.579 0-6.073 3.826-6.073 7.26 0 2.774 1.663 4.637 4.139 4.637 1.07 0 2.311-.571 3.19-1.422.594 1.052 1.829 1.697 3.355 1.697 3.292 0 6.79-2.835 6.79-8.089 0-6.176-4.127-10.325-10.269-10.325-7.382 0-12.948 5.721-12.948 13.308.001 7.534 5.505 10.906 10.96 10.906zm1.989-23.224c5.551 0 9.28 3.752 9.28 9.336 0 4.611-2.989 7.1-5.801 7.1-1.398 0-2.455-.673-2.695-1.714-.087-.38-.709-.495-.936-.178-.664.922-1.916 1.617-2.914 1.617-1.943 0-3.15-1.398-3.15-3.648 0-2.966 2.088-6.271 5.084-6.271.784 0 1.293.339 1.652 1.098.172.365.842.328.97-.054l.275-.823h1.547l-1.14 5.464c-.26 1.075-.19 1.848.213 2.361.326.414.843.624 1.535.624 1.859 0 3.781-2.044 3.781-5.464 0-4.996-3.002-7.979-8.031-7.979-4.753 0-9.884 4.106-9.884 10.74 0 6.317 4.609 8.559 8.556 8.559 1.23 0 2.693-.337 3.935-.895l.52 1.299c-1.463.716-3.033 1.065-4.786 1.065-4.599 0-9.97-2.597-9.97-9.916 0-7.14 5.029-12.321 11.959-12.321z"/>
</svg>