<svg width="100" height="34" viewBox="0 0 100 34" xmlns="http://www.w3.org/2000/svg"><path d="M97.5 31.625h-30a2.507 2.507 0 01-2.5-2.5v-25c0-1.375 1.125-2.5 2.5-2.5h30c1.375 0 2.5 1.125 2.5 2.5v25c0 1.375-1.125 2.5-2.5 2.5zM70.844 27.25c1.156 0 2.094-.938 2.094-2.125v-17C72.938 6.937 72 6 70.844 6s-2.094.938-2.094 2.125v17c0 1.188.938 2.125 2.094 2.125zm18.781-10.625l6.125-7.094c.75-.875.688-2.219-.188-3a2.05 2.05 0 00-2.937.188l-5.75 6.687-5.75-6.687c-.75-.875-2.094-.969-2.938-.188-.874.782-.968 2.125-.187 3l6.063 7.094-6.126 7.094c-.75.875-.687 2.218.188 3 .406.343.875.531 1.375.531a2.05 2.05 0 001.563-.719l5.75-6.687 5.75 6.687c.406.469 1 .719 1.562.719.5 0 .969-.188 1.375-.531.875-.782.969-2.125.188-3l-6.063-7.094zm-87 5.469V11.562H0v-3.28h5.906v13.812h2.625v3.281H0v-3.281h2.625zm3.281-19.75a1.96 1.96 0 01-1.968 1.969 1.96 1.96 0 01-1.97-1.97A1.96 1.96 0 013.939.376a1.96 1.96 0 011.968 1.969zm7.125 19.75V11.562h-2.625v-3.28h6.156v1.968c1.97-1.594 4.032-2.313 5.938-2.313 1.906 0 3.219.875 3.969 2.657 2.187-1.781 4.218-2.656 6.093-2.656 1.094 0 1.97.25 2.688.718.688.5 1.156 1.094 1.406 1.844s.375 1.844.375 3.313v8.28H40v3.282h-6.281V14.406c0-1-.032-1.687-.125-2.094a1.673 1.673 0 00-.657-1 2.16 2.16 0 00-1.28-.406c-1.407 0-3 .719-4.813 2.188v8.969h2.593v3.312h-5.843V14.094c0-1.125-.157-1.938-.469-2.438-.313-.5-.844-.75-1.625-.75-1.25 0-3.219.5-5.188 1.969v9.219h3.313v3.281h-9.219v-3.281h2.625zM61.25 8.28v3.281h-2.844l-.031 12.313c0 1.719-.094 3-.25 3.813-.188.843-.594 1.687-1.25 2.53-.656.876-1.656 1.595-3 2.188-1.344.594-2.813.875-4.438.875-2.468 0-4.687-.75-6.624-2.281l2.156-2.438c1.468 1.157 3.031 1.72 4.75 1.72.937 0 1.812-.188 2.625-.563.812-.375 1.406-.813 1.812-1.344.407-.531.657-1.031.782-1.5.124-.469.187-1.281.187-2.406v-1.563c-.531.657-1.344 1.313-2.438 1.907a7.515 7.515 0 01-3.624.906c-2.407 0-4.376-.844-5.876-2.532-1.5-1.687-2.28-3.78-2.28-6.25 0-2.687.843-4.875 2.5-6.53 1.656-1.657 3.593-2.5 5.78-2.5 2.22 0 4.438 1.187 6.188 3V8.28h5.875zm-16.906 8.594c0 1.719.5 3.125 1.468 4.219 1 1.093 2.25 1.625 3.782 1.625 1.5 0 2.781-.563 3.875-1.657 1.093-1.093 1.625-2.5 1.625-4.25s-.532-3.156-1.625-4.218C52.375 11.53 51.125 11 49.687 11c-1.437 0-2.687.531-3.75 1.563-1.03 1.124-1.593 2.53-1.593 4.312z" fill-rule="evenodd"/></svg>