<svg width="66" height="100" viewBox="0 0 66 100" xmlns="http://www.w3.org/2000/svg"><g fill-rule="evenodd"><path d="M13.546 70.103c.467 0 .68.227.68.68v22.888c0 .84-.16 1.655-.494 2.402-.333.747-.76 1.401-1.32 1.962-.561.56-1.215 1-1.963 1.321a6.042 6.042 0 01-2.402.494H6.18c-.84 0-1.655-.16-2.402-.494a6.198 6.198 0 01-1.962-1.321c-.56-.56-1-1.215-1.321-1.962A5.82 5.82 0 010 93.671v-5.245c0-.467.214-.747.64-.88l4.458-1.175c.427-.133.64.027.64.494v6.566c0 .333.107.6.347.827.227.227.508.347.828.347h.4c.32 0 .6-.107.828-.347a1.14 1.14 0 00.347-.827V70.797c0-.467.227-.68.68-.68.014-.014 4.378-.014 4.378-.014zm19.057 28.72c.066.466-.134.68-.588.68h-4.457c-.427 0-.667-.227-.734-.68l-.4-4.792H23.38l-.4 4.791c-.067.467-.32.68-.734.68h-4.458c-.467 0-.654-.226-.587-.68l3.683-28.025c.067-.467.32-.68.788-.68h6.472c.467 0 .721.226.788.68l3.67 28.025zm-6.566-10.29l-.921-10.836h-.4l-.921 10.836h2.242zm17.83-18.43c.84 0 1.64.16 2.401.494.748.334 1.402.76 1.962 1.321.56.56 1.001 1.214 1.321 1.962.32.747.494 1.548.494 2.402v17.055c0 .841-.16 1.655-.494 2.402-.333.748-.76 1.402-1.32 1.962-.561.56-1.215 1.001-1.963 1.321a5.82 5.82 0 01-2.402.494h-7.34c-.467 0-.68-.227-.68-.68V70.797c0-.467.226-.68.68-.68l7.34-.014zm.453 6.42c0-.321-.107-.601-.347-.828a1.14 1.14 0 00-.828-.347h-1.56v18.91h1.56c.32 0 .601-.107.828-.347a1.14 1.14 0 00.347-.827V76.522zm21.66 17.935v4.364c0 .467-.227.68-.681.68H54.663c-.468 0-.681-.226-.681-.68V70.797c0-.467.227-.68.68-.68h10.623c.468 0 .681.226.681.68v4.35c0 .468-.227.681-.68.681h-5.592v5.592h4.844c.467 0 .68.227.68.68v4.364c0 .468-.226.681-.68.681h-4.844v6.62h5.591c.468 0 .694.226.694.693zM49.759 37.042c.304.303.331.8-.028 1.049-.883.58-2.015.497-3.065.386-1.767-.193-3.865-.276-4.777-1.932-.027 0-.027-.028-.055-.056-1.16-.635.801-1.077 1.353-1.16 1.243-.165 2.568.166 3.783.442 1.022.194 1.988.47 2.789 1.27zm16.125 26.342c-.828.58-.469 1.573-1.049 2.264-.58.662-1.988.662-2.733.662-3.176.028-6.268-.22-9.389.028-.8.055-1.518.166-2.264.359-.22.055-.58.193-.828.055-.635-.331-1.215-1.38-2.043-1.05-.69.305-1.215 1.299-2.044.691-1.518-1.132-2.789-.11-4.39.194-1.657.33-3.23-.58-4.86-.139-1.215.36-2.374.718-3.617.304-1.242-.442-1.574-1.408-.497-2.32 1.712-1.407 3.838-1.628 5.964-1.463 3.23.276 6.434.028 9.664-.138.11 0 .166.056.166.138 1.38.553 2.264-.552 3.065-1.518.11-.138.304-.056.359.027 1.16 1.712 2.568-.22 4.031-.055.387.028.746.138.994.497.11.166.138.359.138.552.056.884 1.188.69 1.16-.193 0-.138.166-.276.304-.22 1.16.469 2.65 1.076 3.59-.139.8-1.022.91-2.485.994-3.728.165-3.34-.056-6.765-.304-10.078-.193-3.23-.552-6.516-.166-9.747.387-3.203.36-6.323.304-9.554-.028-1.684-.11-3.368 0-5.053.055-1.546.331-3.203.166-4.75-.166-1.38-.994-2.567-1.16-3.92-.166-1.243 0-2.54.304-3.755.165-.746.552-1.657.524-2.43-.027-.663-.055-1.353-.027-2.016 0-.331-.056-.856.193-1.132.386-.47.58-1.16-.331-1.242-2.182-.277-4.418-1.657-6.49-.304.028.47.056.994-.055 1.463l.304.387c.525.22 1.05.304 1.63.331.662 0 1.38-.165 2.043-.11.552.055 1.021.552.828 1.187-.138.47-.552.856-.8 1.243-.443.69-.36 1.684-.36 2.485-.027 2.015 0 4.031.055 5.992.056 1.656.221 3.34.332 4.997.027.028.138.056.138.138.055 1.878.69 3.728.718 5.606.027.027-.497 2.319-.497 2.319-.028 2.43-.221 6.93-.221 6.93-.028 4.142-.746 8.257-.028 12.37.304 1.658-.331 3.26-.386 4.916-.056 1.822.165 3.617-.11 5.44.027.11 0 .22-.139.276-3.783.717-7.62.856-11.486.635-.967-.056-2.099-.138-3.038.22-.359.166-.856.387-1.298.36-.552-.056-.828-.498-1.353-.58-.662-.138-1.297-.277-1.932-.332-1.712-.22-3.341-.331-4.943.36-.884.386-1.822.22-2.706-.139-1.05-.442-1.85-.966-3.01-.386-.469.22-.883.469-1.408.58-.442.11-.828 0-1.215-.166-.883-.332-1.574-.442-2.512-.276.11.138.027.386-.166.386-5.605-.304-11.238.36-16.844.442-.276.055-.469.359-.635.359h-.165c-.138 0-.166-.47-.138-.552-.746-.829-.553-3.562-.525-4.363.22-5.219-.442-10.465-.58-15.656-.055-2.596-.055-5.219.36-7.787.496-2.899.496-5.715.44-8.615-.137-5.77.443-11.514.277-17.285 0-.11.11-.138.166-.11l.055-.028c1.546-.138 3.23-.552 4.75-.138a.06.06 0 01.054.055l.221.028h1.712c.056 0 .138.028.138.055 3.038.028 6.075-.22 9.112-.359 1.05-.027 2.154 0 3.203-.331.525-.166 1.16-.442 1.712-.387 1.38.11 2.79.525 4.142.829.967.193 1.63-1.464 2.485-.884 1.298.828 2.789.525 4.28.552.8.028 1.546-.138 2.347-.138.442 0 .8.11 1.187.194.387-.056.718-.028 1.16.138l7.069-.221c1.408.027 2.954.138 4.307-.387.36-.138.553-.331.663-.552-.055-.11-.11-.221-.166-.36-.11-.192-.22-.44-.359-.579-1.518-.497-3.258-.359-4.86-.442-2.18-.11-4.307.194-6.488.36-2.016.165-4.114.303-6.13.137-1.187-.11-3.424-.635-4.446.194a.3.3 0 01-.303 0c-1.933-1.574-4.474.8-6.682.138-1.326-.387-2.568-.663-3.977-.497-1.353.138-2.678.331-4.059.331-3.01-.028-5.991.166-9.001.055-.663-.027-1.298-.027-1.905-.11-.525-.055-1.215-.332-1.74-.11-.828.303-.994.58-.911.828.22.165-.552 1.215-.552 1.74l-.056 1.38c-.027 2.043-.165 3.92-.635 5.909-.22 1.05-.745 2.54-.359 3.59.221.69.746 1.16 1.05 1.767.524 1.132.552 2.512.497 3.727l-.332 11.873c-.138 3.949-.386 7.925-.22 11.901.137 3.673.717 7.428.22 11.073-.165 1.215-1.629 3.368-.22 4.224.8.47 1.739.58 2.65.663 2.237.138 4.473-.11 6.738-.359.828-.11 1.656-.276 2.485-.276a4.58 4.58 0 011.822.276c.525.193 1.325.552 1.933.552.027.028.994-.027 1.05-.303.827-.36 1.545-.636 2.595-.442 1.021.193 1.932.331 3.01.138.552-.11 1.38-.166 1.932-.028l.221.166c.221-.11-.138.276-.359.359-1.242.497-.856 2.098-.994 3.175 0 .11-.138.138-.193.138-.497 0-1.187 0-1.464-.524-.58-1.077-1.988-1.823-1.988.441 0 .138-.11.194-.193.194-.11 0-.193-.056-.193-.194s-1.464-.91-1.63-.994c-.717-.386-1.546-.856-2.402-.552-.524.166-.966.47-1.463.69-.884 1.077-1.822 2.237-3.12 1.547-.276-.138-1.353-1.077-1.574-.884-.304.331-.635.663-1.05.829-1.187.469-2.43.386-3.7.358-.055 0-.193-.055-.193-.165-.055-.497-.331-1.491-1.021-.884-.166.138-.304.276-.47.442-.193.166-.442.387-.69.497-.828.331-3.369-.11-3.7-.69-.276-.442-.359-.884-.47-1.38-.193-1.216-.055-2.541-.11-3.784-.11-3.12-.331-6.185-.58-9.305-.138-1.574-.276-3.203-.138-4.805.055-1.021.11-2.43.635-3.368.442-.746.138-1.353-.442-1.905-.138-.166-.193-.47-.193-.663-.11-1.16.11-2.375.166-3.534.055-.856.193-1.712.193-2.568 0-.663-.138-1.298-.193-1.933-.028-.332-.055-.663.138-.967.386-.552.331-.856.11-1.49-.441-1.216 0-2.68.056-3.95.11-1.49.165-2.954 0-4.472C.36 21.22.03 19.618.14 17.934c.11-1.519.193-2.9.276-4.39.138-2.706.138-5.44.055-8.146v.635s-.22-3.451 1.215-4.28C3.896.538 6.574.732 8.976.621c3.12-.138 6.268.166 9.388.166 1.822 0 3.617-.028 5.384-.442a14.31 14.31 0 013.756-.331c1.546.11 3.037.497 4.556.635 1.518.138 3.01.055 4.528-.028 3.286-.22 6.6-.138 9.885 0l5.136.221c.8.028 1.712.221 2.485.028l1.463-.497c1.077-.304 1.823-.028 2.872.22l3.866.912c.442-.11.856-.138 1.187.193.718.663.028 1.491.552 2.237.635.883 1.215 1.463 1.353 2.595.138 1.215.194 2.54-.193 3.728-.276.8-.635 1.657-.304 2.513.194.524.553 1.021.69 1.573.277 1.188.277 2.375.194 3.59-.055 1.38-.138 2.789-.304 4.142-.11.883-.47 1.74-.497 2.595-.027.718.193 1.326.332 2.016.469 2.264-1.52 3.7-1.878 5.771-.193 1.132 1.077.635 1.657 1.298.359.442.165 1.16.138 1.629-.138 1.215.22 2.402.165 3.617-.055 1.519-.524 2.761-.165 4.28.193.856.359 1.712.165 2.568-.193.856-1.187 3.01.138 3.396.056 0 .11.055.11.138 0 .387-.054.663-.22 1.022-.58 1.325.331 1.05.497 1.905.166.8-.304 1.077-.442 1.822-.193 1.188.442 2.099.387 3.259-.028 1.077-.635 1.684-.442 2.678.055 0 .138.055.138.138.11.525.166 1.132-.028 1.657-.276.745-.58.966.277 1.408.22-.166.22.028.082.11zm-14.44-36.642c-.525-3.23-.83-6.599-1.906-9.692-.47-1.297-.69-2.706-2.209-2.954-1.988-.331-1.325 1.325-1.05 2.9.387 2.43.553 4.914 1.188 7.316.442 1.657 1.243 3.618-.966 2.347-3.7-2.236-4.97-7.123-6.462-10.768-.662-1.657-2.595-5.606-3.92-6.6-.636-.469-3.756-1.16-4.363-.745-1.298.884 2.706 7.096 3.258 8.2 1.215 2.486 2.513 4.943 4.087 7.18 1.132 1.574 2.899 3.037.386 3.976-2.595.994-3.865-.47-5.633-1.822-1.408-1.05-3.203-1.215-4.97-1.409-4.86-.58-9.47-.027-13.364 3.203-1.878 1.574-3.065 3.728-4.059 5.937-.276.552-1.878 5.44-1.657 5.467-.994-.165-.386-2.485-1.656-1.132-1.133 1.187.33 4.611.828 5.799 1.132 2.65 2.32 5.246 3.203 8.007.883 2.761 1.077 2.706 3.617 2.927 3.23.304 6.406-.69 9.581-1.077 0 0-5.632-3.507 5.495.331 2.485.856 5.109.636 7.704.718 1.85-.441 1.905-3.617 2.872-5.108.359-.552 2.153-3.369 2.706-3.59.8-.303 1.933.525 2.733.636 4.64.718 6.075-3.093 5.33-6.82-.636-3.259-.277-6.904.193-9.416.193-.939-.801-2.955-.967-3.81zM30.706 66.393c-.497-.47-1.243-.58-1.74-1.077-.276-.303-.359-.58-.304-.91 0 0-.027 0-.027-.028-.36-.663.47-1.215 1.049-.994.304.138.745.33.8.69.028.47-.275.8-.358 1.215.331.193.662.662.828.883.11.194-.11.36-.248.221z"/></g></svg>