<svg width="16" height="12" xmlns="http://www.w3.org/2000/svg" viewBox="0 0 16 12"><path d="M9.383 8.073c.466.749 1.072 1.299 2.143 1.299.9 0 1.476-.443 1.476-1.055 0-.733-.59-.993-1.582-1.42l-.543-.229c-1.568-.657-2.61-1.481-2.61-3.222C8.267 1.842 9.509.62 11.449.62c1.382 0 2.375.473 3.091 1.712l-1.692 1.07c-.373-.658-.775-.917-1.399-.917-.636 0-1.04.397-1.04.916 0 .642.404.902 1.337 1.299l.543.229c1.846.78 2.889 1.574 2.889 3.36 0 1.925-1.537 2.98-3.601 2.98-2.018 0-3.322-.947-3.96-2.187l1.766-1.01zm-7.677.186c.342.596.652 1.1 1.399 1.1.714 0 1.164-.275 1.164-1.344V.743h2.173v7.3c0 2.215-1.319 3.223-3.245 3.223-1.74 0-2.747-.886-3.26-1.954l1.77-1.053z" fill-rule="evenodd"/></svg>