<svg width="100" height="97" viewBox="0 0 100 97" xmlns="http://www.w3.org/2000/svg"><path d="M6.304 22.83l6.712-8.544c-7.67 14.951-4.22 33.398 5.369 46.602.383.388.767.97 1.342 1.165l.383.388c.384.389.576.777.96 1.165l.383.389c.575.582.958 1.165 1.342 1.553.575.389.959.971 1.342 1.36l.384.388c.192.388.575.582.959.97l.383.389c.384.388.959.97 1.342 1.36 0 .193.192.193.192.193.384.389.959.777 1.342 1.165.192.195.384.195.576.389.383.194.767.582 1.15.777.192.194.384.194.575.388.384.388.767.777 1.15.97l.384.39c.384.193.96.582 1.343.776.191.194.383.194.575.388l1.726 1.165s.192 0 .383.194c.384.195.96.583 1.343.777.191.194.575.194.767.388l1.15.583c.192 0 .192.194.384.194.575.389.958.583 1.534.777.191 0 .191.194.383.194.575.194 1.15.583 1.726.777 0 0 .192.194.383.194l1.726.582c0 .195.192.195.192.195.575.194 1.342.388 1.918.582 0 .194.191.194.383.194.575.194 1.342.389 1.918.583 17.45 3.883 35.666.388 46.02-13.204 0 0-12.272 33.398-54.458 25.631-.575-.194-1.342-.388-1.917-.582 0 0-.192-.195-.384-.195-.575-.194-1.342-.388-1.917-.582h-.192l-1.726-.583c-.191 0-.191-.194-.383-.194-.575-.194-1.15-.582-1.726-.777-.192-.194-.192-.194-.384-.194-.575-.194-.958-.582-1.534-.776-.191 0-.191-.195-.383-.195 0-.194-.192-.194-.192-.194-.383-.194-.575-.388-.959-.582-.191-.194-.575-.194-.767-.389-.383-.194-.958-.582-1.342-.776-.192 0-.383-.195-.575-.195l-1.726-1.165c-.192-.194-.383-.194-.575-.388-.384-.194-.767-.582-1.15-.777h-.192l-.384-.388c-.383-.194-.767-.388-1.15-.777-.192-.194-.384-.194-.576-.388-.383-.194-.767-.583-1.15-.777-.192-.194-.384-.194-.576-.388-.575-.388-.958-.777-1.342-1.165l-.192-.194c-.383-.583-.958-.971-1.342-1.36l-.383-.388-.96-.97c-.19-.195-.19-.195-.383-.39-.575-.387-.958-.97-1.342-1.358a4.509 4.509 0 01-1.342-1.36l-.384-.388c-.383-.388-.575-.777-.959-1.165-.191 0-.191-.194-.383-.388-.384-.389-.575-.971-.959-1.36l-.192-.194c-.383-.582-.767-.97-1.15-1.553-.192-.194-.192-.389-.384-.583-.191-.388-.575-.776-.767-1.165-.191-.194-.191-.388-.383-.582l-.575-1.165c-.192-.195-.192-.389-.384-.583 0-.194-.192-.194-.192-.388-.191-.194-.383-.389-.383-.583-.192-.388-.384-.776-.384-1.165-6.711-13.398-7.862-30.097.96-42.719zm27.08-11.667l5.47-7.592c-4.297 7.202-4.883 15.961-2.344 23.942 2.345 7.59 7.228 14.403 13.48 19.27l.39.389c.587.584 1.173.973 1.759 1.362.195.195.586.39.781.584.195 0 .195.195.39.195.391.194.978.584 1.368.778 0 .195.196.195.196.195l1.172.584c.195 0 .39.195.586.195.195 0 .586.194.781.389.586.195 1.172.584 1.758.778.196 0 .196.195.391.195.39.195.977.39 1.367.584.196 0 .391.195.587.195.39.194.976.194 1.367.389.195 0 .39.195.586.195.781.194 1.368.389 1.954.584 14.26 3.698 27.74-.974 34.577-10.9 0 0-7.619 25.498-40.829 20.048-.781-.195-1.367-.39-1.953-.584-.196 0-.39-.195-.586-.195-.586 0-.977-.194-1.368-.39-.195 0-.39-.194-.586-.194-.39-.194-.977-.389-1.367-.584-.196 0-.196-.194-.391-.194-.586-.195-1.172-.584-1.758-.779h-.195c-.196-.195-.587-.195-.782-.39-.195 0-.195-.194-.39-.194l-1.173-.584c0-.194-.195-.194-.195-.194-.39-.195-.977-.584-1.368-.779-.195 0-.195-.195-.39-.195-.196-.194-.586-.389-.782-.584-.586-.389-1.172-.973-1.758-1.362l-.39-.39c-.587-.389-1.173-.778-1.759-1.362-.586-.39-1.172-.973-1.563-1.362l-.39-.39c-.39-.584-.977-.973-1.368-1.557-1.367-1.168-2.344-2.725-3.32-4.087-1.173-1.363-2.15-3.115-2.931-4.672-5.08-9.732-5.47-21.995.977-31.337zM56.7 3.329L59.386 0c-5.182 8.878-.192 19.976 7.677 25.71 1.344.924 2.879 1.849 4.414 2.589.768.37 1.728.555 2.496.924.575.185 1.343.37 2.11.555 8.83 2.035 16.123.555 20.346-5.363-1.344 1.85-6.142 14.056-24.184 10.727-.384-.185-.768-.185-1.151-.37-.192-.185-.192-.185-.384-.185s-.576 0-.768-.185c-6.526-2.22-12.092-7.028-14.779-13.317C52.668 15.167 53.052 8.693 56.7 3.33z" fill-rule="evenodd"/></svg>