<svg width="100" height="108" viewBox="0 0 100 108" xmlns="http://www.w3.org/2000/svg"><path d="M99.434 24.239c.037.142.055.29.056.438v22.998c0 .6-.307 1.155-.806 1.454L80.233 60.242V82.27c0 .6-.305 1.153-.802 1.455L40.915 106.92c-.088.052-.185.085-.28.121-.037.013-.07.036-.109.046-.27.074-.552.074-.821 0-.045-.012-.085-.038-.127-.054-.088-.034-.18-.063-.264-.113L.805 83.725A1.694 1.694 0 010 82.27V13.276c0-.15.02-.297.056-.44.012-.048.04-.092.056-.14.03-.088.058-.179.102-.26.03-.055.075-.099.11-.15.047-.066.089-.135.143-.194.046-.048.106-.084.158-.126.058-.05.11-.105.176-.145h.002L20.06.224a1.546 1.546 0 011.603 0l19.255 11.597h.004c.064.042.118.095.176.143.052.042.11.08.156.126.056.06.097.13.145.197.034.05.08.094.108.149.046.083.072.172.104.26.016.048.044.092.056.142.037.143.056.29.056.438V56.37l16.046-9.665v-22.03c0-.146.02-.295.056-.435.014-.05.04-.095.056-.143.032-.088.06-.178.104-.26.03-.054.074-.098.108-.149.048-.067.088-.136.144-.195.046-.048.105-.084.157-.125.06-.05.112-.105.176-.145h.002l19.257-11.598c.496-.299 1.107-.299 1.603 0l19.255 11.598c.068.042.12.094.18.142.05.042.109.08.155.126.056.061.096.13.144.197.036.05.08.095.108.15.046.08.073.171.105.259.018.048.044.092.056.143zM96.28 46.704V27.58l-6.738 4.058-9.31 5.607v19.124l16.05-9.665h-.002zM77.025 81.299V62.162l-9.157 5.471L41.72 83.245v19.317l35.305-21.263zM3.21 16.18V81.3l35.3 21.26V83.248L20.07 72.328l-.006-.004-.008-.004c-.062-.038-.115-.092-.173-.138-.05-.042-.108-.076-.152-.122l-.004-.006c-.052-.053-.088-.118-.132-.176-.04-.057-.088-.105-.12-.164l-.002-.006c-.036-.063-.059-.138-.085-.21-.026-.063-.06-.121-.076-.188v-.002c-.02-.08-.024-.164-.032-.246-.008-.063-.024-.125-.024-.188v-45.03l-9.307-5.609-6.738-4.054v-.002zM20.862 3.615L4.82 13.276l16.04 9.66 16.04-9.662-16.04-9.659h.003zm8.343 60.291l9.307-5.604V16.179l-6.738 4.058-9.309 5.607v42.122l6.74-4.06zm49.425-48.89l-16.042 9.66 16.042 9.661 16.039-9.662-16.04-9.66zm-1.605 22.229l-9.31-5.607-6.738-4.058v19.124l9.307 5.605 6.74 4.06V37.245zM40.113 80.342l23.53-14.052 11.76-7.022-16.029-9.655L40.92 60.73l-16.821 10.13 16.015 9.483z" fill-rule="evenodd"/></svg>