<svg width="77" height="95" xmlns="http://www.w3.org/2000/svg" viewBox="0 0 77 95"><path d="M0 0h77v95H0V0zm2 2h73v91H2V2zm27.497 62.771V40.635h-8.023v24.136h8.023zM25.485 37.34c2.798 0 4.54-1.854 4.54-4.17-.053-2.368-1.742-4.17-4.487-4.17C22.794 29 21 30.802 21 33.17c0 2.316 1.74 4.17 4.433 4.17h.052zM33 64.702h8.022V51.224c0-.722.052-1.442.264-1.958.58-1.441 1.9-2.934 4.116-2.934 2.903 0 4.065 2.214 4.065 5.458v12.912h8.021V50.863C57.488 43.45 53.53 40 48.252 40c-4.327 0-6.227 2.419-7.283 4.067h.054v-3.5H33c.105 2.264 0 24.135 0 24.135z" fill-rule="evenodd"/></svg>