<svg height="100" width="100" xmlns="http://www.w3.org/2000/svg" viewBox="0 0 512 512">
    <path d="M508.203 287.039a13.471 13.471 0 013.797 9.375c0 3.637-1.531 6.951-3.962 9.375l-.078.165a13.462 13.462 0 01-9.375 3.795c-3.63 0-6.945-1.538-9.375-3.882l-.159-.158c-2.344-2.423-3.795-5.737-3.795-9.295 0-3.718 1.539-7.031 3.875-9.455l.165-.157c2.423-2.344 5.737-3.805 9.289-3.805 3.724 0 7.038 1.539 9.453 3.883l.165.159zm-4.04 9.375c0-1.618-.647-2.992-1.618-3.962-.962-1.051-2.422-1.61-3.96-1.61-1.531 0-2.905.56-3.875 1.61-1.05.97-1.618 2.344-1.618 3.962 0 1.538.568 2.832 1.618 3.882.97 1.049 2.344 1.617 3.875 1.617 1.538 0 2.998-.568 3.96-1.617.971-1.05 1.618-2.344 1.618-3.882zM416.246 115.565C455.592 154.92 480 209.387 480 269.425s-24.408 114.425-63.754 153.78c-39.355 39.354-93.735 63.754-153.776 63.754-60.126 0-114.509-24.399-153.859-63.754-39.354-39.355-63.68-93.742-63.68-153.78s24.325-114.505 63.68-153.859c39.351-39.354 93.733-63.755 153.859-63.755 60.041 0 114.421 24.4 153.776 63.754zm55.918 153.86c0-57.939-23.438-110.386-61.41-148.366-37.99-37.896-90.429-61.411-148.284-61.411-57.943 0-110.386 23.516-148.289 61.411-37.977 37.98-61.494 90.427-61.494 148.366 0 57.86 23.517 110.306 61.494 148.279 37.902 37.902 90.345 61.419 148.289 61.419 57.855 0 110.294-23.517 148.284-61.419 37.973-37.974 61.41-90.419 61.41-148.279zM432.327 76.377c1.855 1.128 2.503 3.472 1.452 5.334-.322.64-.883 1.129-1.452 1.452l-14.22 8.16c-1.861 1.129-4.205.489-5.335-1.373-1.057-1.854-.409-4.285 1.452-5.334l8.396-4.846-8.396-4.854c-1.861-1.05-2.509-3.473-1.452-5.327 1.13-1.862 3.474-2.509 5.335-1.38l14.22 8.168z"/>
    <path d="M391.514 302.877v91.721a3.87 3.87 0 01-3.875 3.876h-50.103c-2.179 0-3.961-1.775-3.961-3.876v-81.297c0-9.367-.481-19.958-4.042-27.872-3.234-7.355-9.375-12.611-20.769-12.611-11.79 0-18.498 4.53-22.224 11.238-3.953 7.346-4.924 17.448-4.924 27.794v82.748c0 2.101-1.782 3.876-3.882 3.876H229.01c-2.1 0-3.875-1.775-3.875-3.876V227.646c0-2.099 1.775-3.882 3.875-3.882h46.627c2.099 0 3.882 1.783 3.882 3.882v11.799c3.709-3.717 8.317-6.866 13.731-9.375 8.648-4.041 19.475-6.306 32.165-6.306 22.38 0 37.5 5.335 47.601 14.875 10.181 9.612 15.105 23.192 17.204 39.836.489 3.639.813 7.6.979 11.798.236 4.2.315 8.405.315 12.604zm-7.829 87.838v-87.838c0-4.364-.086-8.484-.251-12.201a126.317 126.317 0 00-.964-11.229c-1.862-14.867-6.139-26.909-14.789-35.069-8.648-8.246-22.063-12.769-42.266-12.769-11.554 0-21.251 2.021-28.852 5.493-7.915 3.637-13.573 8.807-16.809 14.946-.647 1.294-2.02 2.02-3.394 2.106h-.725a3.974 3.974 0 01-3.963-3.961v-18.585H232.97v159.106h40.802V311.85c0-11.396 1.137-22.792 5.902-31.52 5.099-9.209 13.984-15.349 29.089-15.349 15.199 0 23.438 7.268 27.888 17.211 4.197 9.375 4.767 20.928 4.767 31.108v77.414h42.267zM384.001 479.604c2.099 0 3.883 1.783 3.883 3.961 0 2.187-1.784 3.883-3.883 3.883h-20.359c-2.178 0-3.883-1.696-3.883-3.883 0-2.178 1.705-3.961 3.883-3.961h20.359zM370.428 490.116c2.099 0 3.882 1.775 3.882 3.874 0 2.187-1.783 3.883-3.882 3.883h-43.481c-2.178 0-3.954-1.696-3.954-3.883 0-2.099 1.776-3.874 3.954-3.874h43.481zM199.598 227.646v166.951c0 2.101-1.775 3.876-3.961 3.876h-58.341c-2.182 0-3.962-1.775-3.962-3.876V227.646c0-2.099 1.78-3.882 3.962-3.882h58.341c2.185.001 3.961 1.784 3.961 3.882zm-7.836 163.069V231.608h-50.587v159.106h50.587zM199.598 173.425c0 8.973-3.637 17.212-9.453 23.193l-.245.244a33.12 33.12 0 01-23.434 9.69 33.135 33.135 0 01-23.434-9.69 33.115 33.115 0 01-9.699-23.438c0-9.13 3.717-17.455 9.699-23.438a33.134 33.134 0 0123.434-9.689 33.13 33.13 0 0123.434 9.689 33.124 33.124 0 019.698 23.439zm-15.034 17.701c4.447-4.53 7.197-10.835 7.197-17.701 0-7.031-2.832-13.336-7.438-17.938-4.525-4.529-10.91-7.354-17.858-7.354-7.027 0-13.332 2.825-17.858 7.354-4.604 4.602-7.433 10.906-7.433 17.938 0 6.953 2.829 13.337 7.351 17.858 4.609 4.608 10.914 7.434 17.941 7.434 7.031 0 13.333-2.825 17.941-7.434l.157-.157zM128.812 26.756c.561 2.106-.729 4.206-2.832 4.773l-6.945 1.855c-2.02.568-4.206-.647-4.771-2.746-.485-2.1.73-4.207 2.75-4.768l7.027-1.861c2.021-.56 4.203.647 4.771 2.747zM121.536 465.952c1.941 1.854 3.07 4.443 3.07 7.268 0 2.912-1.128 5.501-3.07 7.355-1.858 1.862-4.443 3.069-7.272 3.069-2.908 0-5.496-1.207-7.351-3.069-1.862-1.854-2.991-4.443-2.991-7.355 0-2.824 1.128-5.413 2.991-7.268a10.348 10.348 0 017.351-3.069c2.829 0 5.414 1.207 7.272 3.069zm-4.766 7.268c0-.646-.245-1.285-.727-1.775a2.535 2.535 0 00-1.779-.726c-.73 0-1.373.245-1.779.726-.481.49-.805 1.129-.805 1.775 0 .734.324 1.373.805 1.784a2.327 2.327 0 001.779.805c.647 0 1.29-.323 1.779-.805.482-.411.727-1.05.727-1.784zM119.035 43.564c.56 2.107-.647 4.206-2.75 4.767-2.021.568-4.203-.64-4.771-2.746l-1.775-6.787c-.568-2.099.647-4.198 2.746-4.767a3.85 3.85 0 014.766 2.746l1.784 6.787zM113.7 23.527c.564 2.1-.646 4.278-2.746 4.846-2.103.489-4.207-.726-4.771-2.824l-1.78-6.551c-.564-2.02.726-4.198 2.746-4.766 2.104-.482 4.285.726 4.854 2.832l1.697 6.463zM109.336 31.932c.564 2.1-.647 4.199-2.746 4.846l-7.114 1.863c-2.104.56-4.202-.647-4.767-2.755a3.858 3.858 0 012.746-4.767l7.114-1.934c2.099-.567 4.199.727 4.767 2.747zM22.384 253.988l2.104 7.033-7.434 2.184-2.103-6.951z"/>
    <path d="M17.054 263.205l2.099 7.024-7.434 2.265-2.098-7.031zM12.848 249.223l2.103 7.031-7.434 2.178-2.103-6.946zM7.434 258.432l2.104 7.031-7.438 2.265-2.1-7.032z"/>
</svg>