<svg width="100" height="100" viewBox="0 0 100 100" xmlns="http://www.w3.org/2000/svg"><path d="M50 41.347a8.654 8.654 0 110 17.307 8.655 8.655 0 010-17.307zM20.512 50c0-16.286 13.201-29.487 29.486-29.487 16.287 0 29.488 13.201 29.488 29.487 0 1.078-.058 2.141-.17 3.187-.224 2.875 1.885 5.069 4.741 5.069 4.847 0 5.364-6.25 5.364-8.256 0-21.774-17.65-39.423-39.423-39.423-21.773 0-39.422 17.65-39.422 39.423 0 21.772 17.65 39.422 39.422 39.422 11.563 0 21.964-4.976 29.175-12.905l8.105 6.806c-9.155 10.233-22.465 16.679-37.28 16.679C22.385 100.002 0 77.614 0 50 0 22.385 22.385 0 50 0s50 22.385 50 50c0 11.1-5.286 20.113-15.9 20.113-4.673 0-7.512-2.14-9.063-4.53-5.207 8.348-14.472 13.905-25.038 13.905-16.285 0-29.486-13.203-29.486-29.488zm29.486-18.91c-10.443 0-18.91 8.465-18.91 18.91 0 10.444 8.467 18.91 18.91 18.91 10.444 0 18.912-8.466 18.912-18.91 0-10.445-8.468-18.91-18.912-18.91z" fill-rule="evenodd"/></svg>