<svg width="101" height="40" viewBox="0 0 101 40" xmlns="http://www.w3.org/2000/svg"><path d="M35.155 30.728c-1.17.456-2.126.722-2.87.797-1.12.115-2.155.086-3.549-.192-1.394-.277-1.675-.44-2.313-.788-1.085-.593-1.853-1.393-2.332-1.882-1.143-1.164-1.798-2.624-2.21-4.236-.41-1.613-.212-2.81-.212-5.477.12-1.386.388-1.938.688-2.636a10.36 10.36 0 011.91-2.924c.513-.553 1.17-1.356 2.332-1.984.492-.266 1.42-.608 2.786-1.028h5.789v.004c1.018.142 1.774.268 2.268.378.497.11 1.283.327 2.358.65v20.234c-.091 2.11-.388 2.827-1.046 3.899-1.1 1.792-3.126 2.95-4.249 3.395-1.125.447-3.068.72-5.906.606-1.123-.045-3.085-.417-5.887-1.117l.788-4.44c1.09.523 2.042.866 2.857 1.03.815.164 2.117.273 3.905.327 1.412-.12 2.437-.34 3.074-.662.956-.481 1.82-1.097 1.82-2.668v-1.286zm0-4.662V14.837c-2.537-.215-4.227-.214-5.07.002-1.267.325-1.83.929-2.352 1.664-.347.49-.726 1.415-1.134 2.774v4.234c.42 1.12.798 1.86 1.134 2.219.505.538 1.02.992 2.127 1.256 1.106.264 2.352.138 3.137 0 .52-.09 1.24-.397 2.158-.92zM.821 32.231V11.23c1.69-.343 2.883-.559 3.58-.647 1.117-.143 2.813-.326 4.47-.312 1.683.014 3.325.23 4.252.58.92.348 2.26 1.121 3.198 2.526.938 1.404 1.326 2.12 1.521 4.54v14.315h-4.719V17.917c-.274-.978-.5-1.748-1.69-2.586-1.191-.838-1.996-.723-3.008-.723-.675 0-1.67.09-2.983.27V32.23H.82zm43.915-20.398c.972-.465 1.758-.773 2.358-.926 1.501-.381 3.363-.535 4.324-.606 1.537-.114 3.468.088 5.793.606l-.859 4.467c-1.226-.451-2.233-.708-3.023-.77-.79-.062-2.045.017-3.764.238v17.445h-4.83V11.833zm23.552 21.044c-5.247 0-9.978-5.026-9.978-11.377 0-6.351 4.943-11.341 10.19-11.341s9.766 5.07 9.766 11.42c0 6.352-4.732 11.298-9.978 11.298zm-.005-4.71c1.81 0 2.925-.634 3.768-1.686.871-1.087 1.44-2.627 1.44-4.891 0-2.776-.686-4.614-2.022-5.773-.81-.7-1.798-1.292-3.186-1.292-1.38 0-2.373.562-3.146 1.292-1.29 1.22-1.866 3.204-1.866 5.99 0 2.072.475 3.472 1.153 4.505.78 1.19 1.89 1.856 3.859 1.856zM82.159 1.339l4.67-.82v17.6l7.186-7.577 5.612.15-8.952 9.758c2.038 1.843 3.633 3.482 4.787 4.918 1.154 1.435 2.7 3.704 4.637 6.807h-5.453c-1.818-2.656-3.142-4.465-3.97-5.426-.829-.961-2.111-2.176-3.847-3.644v9.07h-4.67V1.338z" fill-rule="evenodd"/></svg>