<svg width="101" height="87" viewBox="0 0 101 87" xmlns="http://www.w3.org/2000/svg"><path d="M96.227 50.364l.157.06c.668.264 1.247.518 1.737.76.736.364 1.397.855 1.79 1.358.183.235.213.647.089 1.236l-.002 9.72c0 .995-1.2 2.088-3.916 3.5-5.337 2.774-32.982 14.11-38.868 17.172-5.885 3.06-9.155 3.03-13.804.813C38.76 82.767 9.34 70.914 4.04 68.389 1.393 67.126 0 66.061 0 65.055V54.569l.014.007c-.02-.29.098-.601.356-.932.393-.503.658-.636 1.33-1.033.447-.265.922-.498 1.424-.7l.6-.235C1.281 50.48 0 49.461 0 48.496V38.01l.014.007c-.02-.29.098-.6.356-.932.393-.503.658-.635 1.33-1.033.447-.265.922-.498 1.424-.7l1.547-.605a41.219 41.219 0 01-.63-.292C1.393 33.19 0 32.127 0 31.12V21.039l.196.095c-.708-1.258.497-2.385 3.642-3.62C9.043 15.473 38.3 3.972 44.484 1.749c6.183-2.223 8.328-2.303 13.59-.371 5.262 1.932 32.742 12.891 37.941 14.8 3.569 1.31 4.783 2.461 3.47 3.955.223-.185.395-.354.515-.507l-.002 9.938c0 .996-1.2 2.089-3.916 3.501-.222.115-.482.245-.777.389l1.08.412c.667.265 1.246.518 1.736.76.736.364 1.397.855 1.79 1.358.183.235.213.647.089 1.236l-.002 9.72c0 .977-1.157 2.049-3.771 3.425zm-1.03.516c-6.977 3.37-32.37 13.812-37.983 16.73-5.885 3.06-9.155 3.03-13.804.814-4.48-2.134-31.943-13.212-38.69-16.28-.761.32-1.452.679-2.074 1.077-.601.387-1.303.916-1.374 1.367-.056.354-.104.352.244.711.029.03.083.07.162.122l14.325 7.274c15.765 6.615 24.9 10.464 27.407 11.545 1.048.452 4.521 3.444 13.804-.686 3.748-1.667 11.295-5.02 22.64-10.056 8.894-3.68 14.873-6.439 17.94-8.277.334-.595.52-.937.556-1.026.234-.576.203-.876.147-1.23-.07-.452-.807-.798-1.408-1.184a8.445 8.445 0 00-1.892-.9zm-1.101-16.855c-8.218 3.814-31.533 13.429-36.882 16.21-5.885 3.06-9.155 3.03-13.804.814-4.286-2.043-29.618-12.274-37.706-15.84-1.16.405-2.178.89-3.058 1.454-.601.386-1.303.915-1.374 1.367-.056.353-.104.352.244.71.029.03.083.07.162.122l14.325 7.274c15.765 6.616 24.9 10.464 27.407 11.545 1.048.452 4.521 3.444 13.804-.686 3.748-1.667 11.295-5.019 22.64-10.056 8.894-3.68 14.873-6.438 17.94-8.277.334-.594.52-.936.556-1.026.234-.576.203-.876.147-1.23-.07-.451-.807-.798-1.408-1.184-.88-.565-1.878-.964-2.993-1.197zm-22.586-.757c-5.198 2.248-9.933 4.322-12.741 5.66l12.741-5.66zM61.404 12.584l-6.674-2.501 1.77-4.247-6.545 2.144-6.942-2.717 2.224 4.108-7.414 2.675 9.937.894 3.111 5.176 1.927-4.638 8.606-.894zM50.357 35.088l6.954-10.201-23.014 3.535 16.06 6.666zM28.09 15.162c-6.793 0-12.3 2.136-12.3 4.77 0 2.636 5.507 4.772 12.3 4.772 6.794 0 12.301-2.136 12.301-4.771s-5.507-4.771-12.3-4.771zM85.965 19.3l-13.36-4.785v9.857l13.36-5.072zm-14.45-4.653l-13.62 4.921 13.62 4.863v-9.784z" fill-rule="evenodd"/></svg>