<svg height='100px' width='100px'  fill="#000000" xmlns="http://www.w3.org/2000/svg" xmlns:xlink="http://www.w3.org/1999/xlink" version="1.1" x="0px" y="0px" viewBox="0 0 70 70" style="enable-background:new 0 0 70 70;" xml:space="preserve"><g><g><g><path d="M59.3798828,67.5009232H10.6201172c-0.2763672,0-0.5-0.2236328-0.5-0.5v-64c0-0.2763672,0.2236328-0.5,0.5-0.5H45.5     c0.2763672,0,0.5,0.2236328,0.5,0.5s-0.2236328,0.5-0.5,0.5H11.1201172v63h47.7597656v-49.800293     c0-0.2763672,0.2236328-0.5,0.5-0.5s0.5,0.2236328,0.5,0.5v50.300293     C59.8798828,67.2772903,59.65625,67.5009232,59.3798828,67.5009232z"></path></g><g><path d="M59.375,17.1991653H45.5c-0.2763672,0-0.5-0.2236328-0.5-0.5V2.9994583     c0-0.2016602,0.1210938-0.3837891,0.3076172-0.4614258c0.1816406-0.078125,0.3994141-0.0366211,0.5439453,0.1054688     l13.875,13.699707c0.1445313,0.1425781,0.1884766,0.3583984,0.1113281,0.5458984S59.578125,17.1991653,59.375,17.1991653z      M46,16.1991653h12.1572266L46,4.1957474V16.1991653z"></path></g></g><g><g><path d="M30.9765625,27.4911575H17.8095703c-0.2763672,0-0.5-0.2236328-0.5-0.5V12.3715286c0-0.2763672,0.2236328-0.5,0.5-0.5     h13.1669922c0.2763672,0,0.5,0.2236328,0.5,0.5v14.6196289C31.4765625,27.2675247,31.2529297,27.4911575,30.9765625,27.4911575z      M18.3095703,26.4911575h12.1669922V12.8715286H18.3095703V26.4911575z"></path></g><g><g><path d="M52.1904297,36.8051224H17.8095703c-0.2763672,0-0.5-0.2236328-0.5-0.5s0.2236328-0.5,0.5-0.5h34.3808594      c0.2763672,0,0.5,0.2236328,0.5,0.5S52.4667969,36.8051224,52.1904297,36.8051224z"></path></g><g><path d="M52.1904297,43.9130325H17.8095703c-0.2763672,0-0.5-0.2236328-0.5-0.5s0.2236328-0.5,0.5-0.5h34.3808594      c0.2763672,0,0.5,0.2236328,0.5,0.5S52.4667969,43.9130325,52.1904297,43.9130325z"></path></g><g><path d="M52.1904297,51.0209427H17.8095703c-0.2763672,0-0.5-0.2236328-0.5-0.5s0.2236328-0.5,0.5-0.5h34.3808594      c0.2763672,0,0.5,0.2236328,0.5,0.5S52.4667969,51.0209427,52.1904297,51.0209427z"></path></g><g><path d="M52.1904297,58.1288528H17.8095703c-0.2763672,0-0.5-0.2236328-0.5-0.5s0.2236328-0.5,0.5-0.5h34.3808594      c0.2763672,0,0.5,0.2236328,0.5,0.5S52.4667969,58.1288528,52.1904297,58.1288528z"></path></g></g></g></g></svg>