<svg height="100" width="100" xmlns="http://www.w3.org/2000/svg" viewBox="0 0 70 70">
    <path d="M59.38 67.5H10.62a.5.5 0 01-.5-.5V3a.5.5 0 01.5-.5H45.5a.5.5 0 110 1H11.12v63h47.76V16.7a.5.5 0 111 0V67a.5.5 0 01-.5.5z"/>
    <path d="M59.375 17.2H45.5a.5.5 0 01-.5-.5V3a.5.5 0 01.852-.356l13.875 13.7a.5.5 0 01-.352.855zM46 16.2h12.157L46 4.195v12.003z"/>
    <g>
        <path d="M30.977 27.491H17.81a.5.5 0 01-.5-.5v-14.62a.5.5 0 01.5-.5h13.167a.5.5 0 01.5.5v14.62a.5.5 0 01-.5.5zm-12.667-1h12.167v-13.62H18.31v13.62zM52.19 36.805H17.81a.5.5 0 110-1h34.38a.5.5 0 110 1zM52.19 43.913H17.81a.5.5 0 110-1h34.38a.5.5 0 110 1zM52.19 51.02H17.81a.5.5 0 110-1h34.38a.5.5 0 110 1zM52.19 58.129H17.81a.5.5 0 110-1h34.38a.5.5 0 110 1z"/>
    </g>
</svg>