<svg width="100" height="42" viewBox="0 0 100 42" xmlns="http://www.w3.org/2000/svg"><g fill-rule="evenodd"><path d="M99.91 21.698c0-7.085-3.431-12.676-9.99-12.676-6.587 0-10.573 5.591-10.573 12.62 0 8.331 4.705 12.538 11.458 12.538 3.294 0 5.785-.747 7.666-1.799v-5.535c-1.881.94-4.04 1.522-6.78 1.522-2.685 0-5.065-.941-5.37-4.207h13.534c0-.36.056-1.799.056-2.463zm-13.671-2.63c0-3.127 1.91-4.427 3.653-4.427 1.688 0 3.487 1.3 3.487 4.428h-7.14zM68.664 9.022c-2.712 0-4.455 1.274-5.424 2.16l-.36-1.717h-6.089v32.27l6.92-1.466.027-7.833c.996.72 2.463 1.744 4.899 1.744 4.954 0 9.465-3.985 9.465-12.759-.028-8.026-4.594-12.399-9.438-12.399zm-1.66 19.07c-1.633 0-2.602-.582-3.266-1.302l-.028-10.267c.72-.803 1.716-1.357 3.294-1.357 2.518 0 4.262 2.823 4.262 6.449 0 3.709-1.716 6.476-4.262 6.476zM54.217 5.895V.277l-6.946 1.467V7.39zM47.271 9.493h6.947V33.71h-6.947zM39.826 11.54l-.443-2.047h-5.978v24.216h6.919V17.298c1.633-2.132 4.4-1.744 5.259-1.44V9.493c-.886-.332-4.124-.941-5.757 2.048zM25.988 3.487l-6.753 1.44-.028 22.168c0 4.096 3.072 7.113 7.168 7.113 2.27 0 3.93-.415 4.844-.914v-5.618c-.886.36-5.259 1.633-5.259-2.463v-9.825h5.259V9.493H25.96l.028-6.006zM7.279 16.523c0-1.08.885-1.495 2.352-1.495 2.104 0 4.76.637 6.864 1.771v-6.503c-2.297-.914-4.567-1.274-6.864-1.274-5.618 0-9.354 2.934-9.354 7.833 0 7.638 10.517 6.42 10.517 9.714 0 1.273-1.107 1.688-2.657 1.688-2.297 0-5.231-.94-7.556-2.214v6.587a19.185 19.185 0 007.556 1.578c5.756 0 9.714-2.851 9.714-7.805-.028-8.247-10.572-6.78-10.572-9.88z"/></g></svg>