<svg width="89" height="99" viewBox="0 0 89 99" xmlns="http://www.w3.org/2000/svg"><path d="M23.31 42.483C4.27 37.158-.427 20.432.423 9.183c18.49-7.495 38.388.182 49.877 16.182 8.055 11.215 13.098 25.593 14.122 38.14-5.527-7.293-12.507-11.518-21.397-14.828-6.082-2.261-11.699-3.76-19.715-6.194zm8.449 55.59c-1.795-14.377 4.042-26.642 9.836-34.12 2.753-3.512 4.868-6.716 6.48-9.667 3.043 1.318 11.224 5.61 15.732 12.578-.655 10.11-8.125 28.506-32.048 31.21zm25.888-70.43C53.184 14.763 66.228.953 76.958.542c6.43 3.354 11.95 12.162 11.674 24.115-.842 14.726-11.262 27.417-22.6 39.11-.633-14.258-3.66-23.346-8.385-36.124z" fill-rule="evenodd"/></svg>