<svg width="86" height="101" viewBox="0 0 86 101" xmlns="http://www.w3.org/2000/svg"><path d="M.804 19.784L9.744.89h47.797L36.664 19.784H.804zM.417 21.14h34.345l-8.919 8.25L.417 21.14zm58.95-19.607L84.863 48.8l-46.73-28.471L59.366 1.534zm-22.584 19.88l46 27.779-55.399-19.198 9.399-8.582zm-10.665 9.793l9.613 3.332v32.729l-9.613 3.105L4.7 50.79l21.42-19.583zm11.243 3.801l44.813 15.278-44.813 16.222v-31.5zm-9.59 36.545l54.707-19.73-45.286 28.393-9.422-8.663zm10.752 9.697l46.631-29.656-26.027 48.453L38.523 81.25zM.617 80.498l25.46-8.396 8.957 8.396H.617zm.132 1.597h35.94l20.397 17.987H9.663L.75 82.095z" fill-rule="evenodd"/></svg>