<svg width="100" height="100" viewBox="0 0 100 100" xmlns="http://www.w3.org/2000/svg"><path d="M13.163 0h73.643c7.25 0 13.164 5.884 13.164 13.163v73.674c0 7.249-5.884 13.163-13.164 13.163H13.163C5.914 100 0 94.116 0 86.837V13.133C0 5.884 5.884 0 13.163 0zm37.974 25.265c-15.59 0-28.237 12.648-28.237 28.269 0 15.62 12.647 28.237 28.237 28.237 15.59 0 28.238-12.648 28.238-28.268 0-15.62-12.617-28.238-28.238-28.238zm0 48.165c-10.98 0-19.896-8.917-19.896-19.896 0-10.98 8.917-19.897 19.896-19.897 10.98 0 19.897 8.917 19.897 19.897 0 10.98-8.887 19.896-19.897 19.896zm9.251-51.107v-3.427a4.336 4.336 0 00-4.337-4.337h-10.1a4.336 4.336 0 00-4.337 4.337v3.518c0 .395.364.668.758.577a31.608 31.608 0 018.796-1.244c2.881 0 5.732.394 8.492 1.153a.587.587 0 00.728-.577zm-27.692 4.49l-1.728-1.73a4.32 4.32 0 00-6.127 0l-2.063 2.063a4.32 4.32 0 000 6.127l1.699 1.698c.273.273.667.213.91-.06 1-1.365 2.093-2.67 3.306-3.883a31.191 31.191 0 013.912-3.336c.304-.182.334-.607.091-.88zM51.137 37.7v14.832c0 .424.455.728.85.515l13.163-6.824c.303-.152.394-.516.243-.82-2.73-4.791-7.795-8.067-13.649-8.28-.303 0-.607.243-.607.577z" fill-rule="evenodd"/></svg>