<svg width="85" height="100" viewBox="0 0 85 100" xmlns="http://www.w3.org/2000/svg"><path d="M42.527.193l41.666 20.47V49.95H63.397V32.84l-8.508-1.783V49.95H42.527l-41.55.32V20.854l11.81-5.92 7.55 2.135v-5.922L42.527.193zM20.152 18.209l-6.228-1.574v32.129h6.228V18.209zM42.517 1.554V48.43h11.151V21.809l26.055 8.45v18.732h3.42V21.297L42.516 1.554zM.978 58.618l42.065-2.428 12.733.702v1.214l7.61-.702 20.516 1.214v20.67L42.44 99.948 20.416 88.98v-6.087l-7.791 2.17L.978 79.288v-20.67zM14.164 83.33l6.324-1.863v-19.77L54.683 58.3v-.253L14.164 61.39v21.94zm29.922-17.068v30.975l38.875-18.788V59.986L44.086 66.26z" fill-rule="evenodd"/></svg>