<svg width="97" height="79" viewBox="0 0 97 79" xmlns="http://www.w3.org/2000/svg"><path d="M0 12.218h22.559v6.579H0v-6.579zM0 0h22.559v6.579H0V0zm40.473 24.342H0v6.58h38.957c4.265 0 14.217.093 17.914 6.014v-3.665c-1.8-5.827-7.109-8.929-16.398-8.929zm.095 12.218H0v6.58h38.957c9.478 0 15.45.375 17.914 1.69v-2.913c-1.896-4.605-9.858-5.357-16.303-5.357zm-.095 31.015H0v-6.579h38.957c4.265 0 14.217-.094 17.914-6.015v3.666c-1.8 5.827-7.109 8.928-16.398 8.928zm.095-12.218H0v-6.579h38.957c9.478 0 15.45-.376 17.914-1.692V50c-1.896 4.605-9.858 5.357-16.303 5.357zm26.16 23.59h29.763v-4.041h-28.91c-2.558 0-8.625-.094-10.805-3.571v2.255c1.043 3.478 4.266 5.357 9.953 5.357zm-.094-7.424h29.762V67.48H67.582c-5.782 0-9.384-.188-10.806-1.034v1.786c1.138 2.82 5.972 3.29 9.858 3.29z" fill-rule="evenodd"/></svg>