<svg width="100" height="100" viewBox="0 0 100 100" xmlns="http://www.w3.org/2000/svg"><path d="M75.01 75.02h24.953v24.953H75.01V75.02zm-.46-24.189c.272-6.371-1.943-12.189-6.645-17.452-4.702-5.263-10.588-7.894-17.66-7.893V.14C64.384.503 76.21 5.51 85.727 15.164 95.242 24.817 100 36.706 100 50.83H74.55zM48.872.115v25.413c-3.071.19-6.045.833-8.922 1.928-2.876 1.095-5.563 2.842-8.062 5.24l-17.576-17.45c5.196-4.997 10.518-8.685 15.966-11.065C35.727 1.8 41.925.446 48.872.115zM13.19 16.362l17.688 17.22c-3.448 3.297-5.505 7.485-6.17 12.564-.665 5.078-.08 9.873 1.753 14.383 3.185 5.107 6.36 8.704 9.526 10.792 2.129 1.404 4.822 2.772 8.084 3.587 1.059.264 2.781.505 5.167.722V100c-6.574-.282-12.29-1.366-17.146-3.25-4.857-1.885-9.82-4.853-14.887-8.904-2.651-2.631-4.466-4.536-5.445-5.714-2.909-3.5-4.584-6.447-5.85-8.766-1.02-1.871-2.329-4.85-3.353-8.172-.592-1.918-1.384-5.211-2.379-9.88-.569-6.523.224-13.133 2.379-19.83.923-2.87 1.881-5.772 3.354-8.569 1.308-2.485 3.735-6.003 7.279-10.553z" fill-rule="evenodd"/></svg>