<svg width="99" height="99" viewBox="0 0 99 99" xmlns="http://www.w3.org/2000/svg"><path d="M88.579 0H10.42A10.378 10.378 0 000 10.421V88.58C0 94.369 4.632 99 10.421 99H88.58C94.253 99 99 94.368 99 88.579V10.42C99 4.631 94.368 0 88.579 0zM49.326 60.326c3.242 0 6.716-1.273 10.074-4.284l4.632 5.326c-4.864 3.937-10.421 6.137-15.98 6.137-11 0-17.947-7.294-16.326-17.6 1.621-10.305 11-17.6 22-17.6 5.327 0 10.306 2.084 13.78 5.906l-6.485 5.326c-1.853-2.432-4.979-4.053-8.453-4.053-6.6 0-11.694 4.284-12.736 10.421-.927 6.137 2.779 10.421 9.494 10.421z" fill-rule="evenodd"/></svg>