<svg width="16" height="22" xmlns="http://www.w3.org/2000/svg" viewBox="0 0 16 22"><g fill-rule="evenodd"><path d="M7.696 11.19H3.24l.172 1.888h6.647l-.223 2.449-2.139.568h-.002l-2.136-.567-.136-1.506H3.496l.269 2.964 3.929 1.074.009-.003 3.925-1.07.029-.32.45-4.97.048-.506.346-3.82H2.893l.175 1.887H10.399l-.175 1.933H7.696zm7.667-6.966l-1.396 15.389-6.274 1.712-6.256-1.71L.042 4.225h15.321zM3.648.042H5.97v.956H4.619v.956h1.352v.956H3.648zM6.436.042h2.323v.83H7.407v.167H8.76v1.912H6.436v-.873h1.351v-.166H6.436zM9.223.042h2.323v.83h-1.351v.167h1.351v1.912H9.223v-.873h1.352v-.166H9.223z"/></g></svg>