<svg width="94" height="108" viewBox="0 0 94 108" xmlns="http://www.w3.org/2000/svg"><path d="M70.172 19.916c3.301 2.063 23.52 14.441 23.52 41.784 0 27.343-21.567 45.388-46.42 45.388S.028 87.488.028 60.875c0-26.614 20.727-38.993 24.55-40.946 4.539-2.475 7.84-3.713 13.094-7.84 2.476-2.062 4.649-4.95 5.364-12.075 3.713 4.442 8.156 9.586 11.347 11.76 5.171 3.397 10.315 4.73 15.79 8.142zm-8.39 64.052c-1.65 0-2.585-.11-4.332.618-1.747.73-3.617 2.38-4.745 3.411-1.128 1.032-1.348 1.857-.715 2.682.632.826 1.251.317 2.998-1.127 1.747-1.445 2.888-2.682 6.492-2.682 3.603 0 4.236 1.347 4.951 2.682.716 1.334.826 1.54 1.54 1.127.826-.412 1.239-1.031.826-2.063-.413-1.031-1.128-2.888-2.366-3.713-1.238-.825-2.998-.935-4.648-.935zm-17.11 11.76c-.316-.207-.233-.207-.838-.207-.606 0-1.018.302-1.54.715-.523.413-.716 1.458 0 2.173 4.538 4.126 12.048 3.81 17.632 3.301 5.584-.509 10.315-3.81 10.838-4.332.715-.73.509-1.348.412-1.76-.096-.414-.508-1.019-1.444-.303-2.063 1.54-6.698 3.41-13.3 3.41s-9.696-1.347-11.76-2.998zM20.329 76.952c-.11 4.539 1.43 7.84 4.567 10 2.063 1.333 3.92 2.269 10.109 2.269 10.205 0 23.202-12.695 29.185-12.489 4.746.22 12.173 11.773 15.886 12.076 2.889.206 4.429-1.128 6.905-4.745 2.475-3.617 3.507-9.394 3.507-12.585 0-3.19-1.444-8.555-6.602-8.555-4.855 0-14.758 10.095-19.916 10.205-6.093.11-14.441-11.965-26.517-11.855-9.49.11-17.014 7.633-17.124 15.68z" fill-rule="evenodd"/></svg>