<svg width="100" height="100" viewBox="0 0 100 100" xmlns="http://www.w3.org/2000/svg"><path d="M.012 100V0H100v100H.012zm23.891-30.506V51.606h14.971c.296 0 .474-.138.474-.481v-5.711c0-.344-.119-.481-.474-.481H23.903V31.86H40.59c.355 0 .474-.207.414-.62l-.532-5.572c-.06-.413-.178-.482-.533-.482H17.157c-.355 0-.414.069-.414.482v43.825c0 .344.119.55.355.55h6.332c.355 0 .473-.137.473-.55zm46.651.55h6.307c.45 0 .507-.137.62-.55l8.165-32.405c.056-.344-.113-.481-.338-.481h-5.575c-.225 0-.394.137-.45.481-3.491 14.792-4.561 21.397-5.237 25.456h-.113c-.394-2.477-1.295-7.98-4.955-25.524-.056-.276-.17-.413-.45-.413h-6.026c-.394 0-.45.137-.507.55-3.716 16.856-5.124 24.011-5.35 25.18h-.112c-.394-2.476-1.182-7.499-5.012-25.317-.056-.344-.169-.413-.506-.413h-6.026c-.338 0-.45.206-.338.55l7.377 32.267c.113.413.226.62.732.62h6.25c.339 0 .508-.138.62-.551 3.548-14.792 4.9-20.915 5.462-24.355h.057c.563 3.233 1.633 9.013 4.786 24.355.113.413.225.55.62.55z" fill-rule="evenodd"/></svg>