<svg width="100" height="100" viewBox="0 0 100 100" xmlns="http://www.w3.org/2000/svg"><path d="M98.115 45.546L54.45 1.886a6.438 6.438 0 00-9.106 0l-9.066 9.068 11.5 11.5a7.645 7.645 0 017.868 1.833 7.655 7.655 0 011.817 7.918l11.084 11.084c2.682-.924 5.776-.327 7.917 1.818a7.66 7.66 0 010 10.837 7.662 7.662 0 01-10.84 0 7.667 7.667 0 01-1.667-8.334L53.621 37.272l-.001 27.203c.73.362 1.419.844 2.027 1.45a7.665 7.665 0 010 10.838 7.664 7.664 0 11-8.327-12.51V36.796a7.561 7.561 0 01-2.51-1.672 7.661 7.661 0 01-1.65-8.377l-11.337-11.34L1.887 45.344a6.442 6.442 0 000 9.11l43.66 43.66a6.44 6.44 0 009.108 0l43.46-43.454a6.444 6.444 0 000-9.11" fill-rule="evenodd"/></svg>