<svg width="16" height="22" xmlns="http://www.w3.org/2000/svg" viewBox="0 0 17 22"><g fill-rule="evenodd"><path d="M1.457 0h.974v.95h.898V0h.974v2.876H3.33v-.959h-.89v.96h-.982M5.591.958h-.86V0h2.698v.959h-.864v1.917H5.59M7.857 0h1.02l.627 1.013L10.131 0h1.02v2.876h-.973V1.451l-.682 1.033-.682-1.033v1.425h-.957M11.635 0h.974v1.926h1.38v.95h-2.354M7.7 13.067v.005h2.372l-.225 2.459-2.143.566-2.147-.566-.136-1.513H3.49l.271 2.972 3.947 1.084v-.011l3.93-1.073.53-5.81H5.167L4.99 9.24h7.353l.178-1.892H2.88l.525 5.718H7.7zm-6.277 6.565L.025 4.193h15.366l-1.397 15.431-6.298 1.717-6.273-1.709z"/></g></svg>