<svg width="100" height="98" viewBox="0 0 100 98" xmlns="http://www.w3.org/2000/svg"><path d="M99.958 0v97.5H0V0h99.958zM36.542 67.583V22.75c0-.208-.042-.333-.084-.375a.832.832 0 00-.375-.083h-6.458c-.208 0-.333.041-.417.125-.083.083-.125.25-.125.416v44.75c0 .125.042.25.125.334.084.083.25.125.417.125H36c.25 0 .417-.042.458-.084.084-.041.084-.166.084-.375zm7.333-16.166c0 5.833 1.5 10.166 4.458 13.041 3 2.875 6.75 4.292 11.334 4.292 1.833 0 3.666-.208 5.541-.583 1.834-.375 3.667-1 5.417-1.917.125-.042.208-.125.292-.208.041-.042.083-.167.083-.292-.125-.75-.208-1.5-.208-2.25V22.667a.602.602 0 00-.084-.292.602.602 0 00-.291-.083h-6.875c-.084 0-.125.041-.25.083a.378.378 0 00-.125.292v11.125a10.4 10.4 0 00-1.042-.084H61c-5.25 0-9.458 1.709-12.5 5.125-3.083 3.459-4.625 7.625-4.625 12.584zm19.333-10.959v21.125c-.375.209-.833.334-1.375.375-.541.084-1.083.084-1.583.084-2.417 0-4.458-.875-6.125-2.584-1.667-1.708-2.542-4.5-2.542-8.375 0-3.5.875-6.208 2.584-8.125 1.708-1.916 3.916-2.916 6.583-2.916.5 0 .958.041 1.375.083.417.125.792.208 1.083.333z" fill-rule="evenodd"/></svg>