<svg width="99" height="99" viewBox="0 0 99 99" xmlns="http://www.w3.org/2000/svg"><path d="M85.527 54.206c0 .878-.346 1.72-.962 2.341-.616.621-1.452.97-2.323.97a3.272 3.272 0 01-2.323-.97 3.324 3.324 0 01-.962-2.341v-29.58c0-.877.346-1.72.962-2.34a3.273 3.273 0 012.323-.97c.871 0 1.707.349 2.323.97.616.62.962 1.463.962 2.34v29.58zM84.387 74.7c-.434.437-12.653 10.698-35.053 10.698S14.798 75.193 14.282 74.755a3.25 3.25 0 01-1.137-2.219 3.279 3.279 0 01.757-2.378 3.269 3.269 0 014.616-.356c.19.137 11.104 9.058 30.79 9.058 19.684 0 30.68-8.975 30.789-9.057a3.323 3.323 0 014.643.355 3.273 3.273 0 01-.326 4.57l-.027-.027zM13.114 24.627c.05-.881.442-1.707 1.094-2.296a3.297 3.297 0 012.382-.851c.81.046 1.575.394 2.147.975.571.58.909 1.354.948 2.172V54.15c0 .878-.346 1.72-.962 2.341-.617.621-1.452.97-2.323.97a3.272 3.272 0 01-2.324-.97 3.324 3.324 0 01-.962-2.34V24.626zm16.481-6.567c.05-.881.442-1.707 1.094-2.296a3.297 3.297 0 012.382-.851c.81.046 1.575.394 2.147.975.571.58.909 1.354.948 2.172v43.78c0 .878-.346 1.72-.962 2.341-.617.621-1.452.97-2.323.97a3.272 3.272 0 01-2.324-.97 3.324 3.324 0 01-.962-2.341V18.06zm16.563-1.642c0-.878.346-1.72.962-2.341a3.272 3.272 0 012.323-.97c.871 0 1.707.349 2.323.97.616.62.962 1.463.962 2.341v47.611c0 .878-.346 1.72-.962 2.341-.616.621-1.452.97-2.323.97a3.272 3.272 0 01-2.323-.97 3.324 3.324 0 01-.962-2.34V16.417zm16.29 1.642c0-.878.347-1.72.963-2.341a3.272 3.272 0 012.323-.97c.871 0 1.707.349 2.323.97.616.62.962 1.463.962 2.34V61.84c0 .878-.346 1.72-.962 2.341-.616.621-1.452.97-2.323.97a3.272 3.272 0 01-2.323-.97 3.324 3.324 0 01-.962-2.341V18.06zM86.424 0H12.354C10.74-.01 9.14.3 7.645.913a12.267 12.267 0 00-4.002 2.661A12.373 12.373 0 00.958 7.578c-.625 1.5-.95 3.109-.958 4.736v73.879c.007 1.626.333 3.236.958 4.735.625 1.5 1.537 2.86 2.685 4.004a12.267 12.267 0 004.002 2.662c1.495.613 3.095.923 4.71.912h74.068c1.612.01 3.21-.298 4.703-.91a12.267 12.267 0 004-2.654 12.37 12.37 0 002.686-3.995 12.45 12.45 0 00.965-4.727V12.314a12.452 12.452 0 00-.955-4.73 12.374 12.374 0 00-2.678-4A12.264 12.264 0 0091.151.921a12.189 12.189 0 00-4.7-.92h-.028z" fill-rule="evenodd"/></svg>