<svg width="77" height="95" xmlns="http://www.w3.org/2000/svg" viewBox="0 0 77 95"><path d="M0 0h77v95H0V0zm2 2h73v91H2V2zm42.905 35.1c-.09.129-.179.257-.27.385-.08.113-.218.209-.324.299-.117.1-.194.234-.295.35-.077.09-.314.06-.42.044h.015c-.026-.04-.385-.087-.37.005-.084.025-.209.048-.28.103l-.147.116c-.032.024-.173.101-.182.145l.011-.007c-.032.002-.138-.01-.158.014-.038.047-.073.102-.12.141-.048.04-.098.08-.142.123-.041.04-.111-.028-.134-.002-.165.184-.36.331-.545.494-.072.063-.064.266-.065.353-.002.128-.012.26 0 .39.016.21.185.417.313.574.06.074.113.165.197.211.08.044.159.083.24.122.163.077.31.147.487.185.12.026.237.015.358.057.074.026.154.04.23.059.166.04.266.204.366.322.054.064.126.119.173.188.041.06.081.154.14.197l.45.33c.063.045.099.14.166.178.067.037.187.036.263.05.071.014.446.152.366.216.07-.01.14-.027.212-.026.195.003.368.017.544.107.137.071.262.244.372.357.126.13.253.22.354.372.092.137.164.278.229.429.071.166.11.333.161.506.048.161.024.323.053.487.035.204.024.352-.003.559-.01.075-.042.17-.03.245.01.057-.002.09.055.103.051.012.138.027.094.098-.137-.1-.163.061-.187.174-.03.136.005.332-.064.447-.138.227-.197.484-.318.718-.052.1-.076.216-.132.311-.063.109-.184.17-.275.253-.17.157-.224.389-.263.613l.005-.008c.02.02-.031.168-.038.187-.02.05-.059.083-.112.062-.068-.026-.132.01-.188.065-.089.087-.074.128-.005.225.027.039.01.091.005.137-.002.021-.076.023-.097.027.007-.055.012-.107.012-.163-.053.045-.072.12-.125.158-.025.018-.097.032-.111.055a4.601 4.601 0 01-.136.225c-.086.133-.292.144-.373.28-.096.159-.049.383.078.52.064.071.116.086.21.08.051-.004.062.016.077-.038.011-.044.01-.086.01-.132.003-.194.08-.293.254-.377.039-.019.056-.048.082-.083.013-.017.077.036.094.047.076.047.102.086.101.169l-.002.153c0 .066-.068.113-.088.171-.022.064.036.202.079.246.038.04.045.054.058.108.007.03.082.04.108.05.032.01.182-.096.221-.115.047-.023.078-.086.12-.118.038-.03.106-.011.15-.008a.466.466 0 01.229.062c.118.064.307.193.315.342.01.208-.017.413.046.613.036.115.368.189.449.11.077-.075.125-.123.233-.141.07-.012.157.059.216.009.122-.101.178-.237.316-.313a.955.955 0 01.241-.101c.09-.023.096-.058.155-.132.046-.057.106-.13.176-.152.076-.025.153-.034.221-.075.071-.043.142-.11.214-.146.085-.041.17-.06.209-.15.02-.045.023-.154.052-.186.022-.025.082-.014.1-.044.016-.025.037-.083.065-.091.038-.011.076-.014.103-.044a.616.616 0 00.141-.235c.036-.11.125-.11.197-.19.048-.053.089-.18.156-.186.108-.01.11-.122.13-.218.024-.112.101-.183.153-.286a2.28 2.28 0 01.147-.255c.024-.034.004-.091.027-.124.015-.021.077-.026.077-.056.001-.085.03-.137.084-.206.11-.14.218-.22.232-.409.01-.125.028-.145.107-.243.053-.066.099-.132.141-.205.04-.068.104-.126.132-.2.047-.12.051-.129.171-.176.144-.057.145-.308.306-.36.089-.027.098-.118.122-.204.025-.085.105-.124.173-.18.057-.045.13-.107.2-.127.07-.019.172.028.222-.03.06-.068.044-.155.026-.24-.018-.082.018-.128.042-.206.03-.096.06-.185.1-.276.031-.067.03-.154.066-.216.048-.083.071-.249.132-.313.054-.057.169-.079.24-.103a.438.438 0 00.194-.11c.06-.075.082-.14.13-.218.023-.037.082-.063.098-.104.012-.032 0-.091.001-.127 0-.066.073-.133.08-.207.006-.081.004-.16.043-.235.04-.076.08-.15.106-.233.015-.05.039-.221.109-.23.097-.013.088-.102.136-.18.044-.072.119-.1.143-.18.015-.05-.003-.106.009-.157.012-.047.03-.089.038-.137.029-.158.079-.366.2-.484.059-.058.128-.15.049-.215-.046-.038-.179-.013-.243-.023-.111-.017-.135-.033-.208-.121-.046-.055-.053-.134-.082-.2-.063-.144-.055-.324-.064-.479l-.077.018c-.002-.156-.014-.32.037-.466a.883.883 0 01.265-.35c.055-.041.139-.103.165-.166.029-.07.035-.158.068-.224.031-.064.058-.17.119-.21a.502.502 0 01.258-.081c.135-.017.292-.168.417-.234.138-.074.309-.1.418-.22.114-.128.337-.105.5-.11.162-.006.325.002.486.004.197.003.385.007.58.04.109.02.208.06.321.073.045.005.18.002.174.047-.015.1-.03.193-.058.29-.02.07-.081.153-.09.223-.017.145.068.353.11.49a.633.633 0 00.27-.418c.009-.065.105-.127.157-.165.087-.061.124-.075.148-.176a.917.917 0 01-.292-.08c-.097-.044-.092-.114-.097-.208-.009-.185.03-.377.055-.56.012-.087.02-.175.03-.263.005-.045.018-.09.027-.134.006-.035.043-.042.053-.071.012-.037-.013-.087.004-.122l.063-.13c.03-.062.127-.12.178-.167-.068.004-.162.034-.182-.06-.013-.062.04-.16.068-.215.042-.083.068-.133.176-.127.052.002.157.04.19.082.066.088.109.071.166-.019.07-.112.13-.112.23-.18.12-.082.184-.276.312-.338.127-.061.29-.162.312-.308.014-.089-.006-.251.06-.315.057-.056.117-.106.178-.156.018-.015.006-.09.007-.112 0-.041-.022-.029-.062-.032-.1-.01-.084-.105.001-.13.063-.017.05-.122.056-.183.011-.104.034-.113.117-.179a.322.322 0 01-.157-.148c-.037-.064.057-.11.063-.171.006-.057.05-.12.071-.175.037-.098-.067-.05-.066-.134l.002-.16c.001-.055.027-.04.078-.045.023-.002.16-.12.152-.14-.043-.127-.207-.41-.03-.489.068-.03.165-.102.166-.183 0-.032-.013-.098.007-.123.03-.04.054-.056.05-.106-.005-.054-.02-.22.02-.254.067-.057.132-.107.186-.176.105-.134.192-.28.289-.42.034-.05.164-.227.145-.294-.012-.043-.17-.14-.212-.17-.19-.138-.4-.174-.622-.232.02.005-.098-.195-.098-.194-.017-.09.107-.122.165-.152a1.438 1.438 0 00-.274-.062c-.077-.009-.178-.066-.252-.059-.039.004-.075.05-.115.046-.037-.004-.075-.006-.112-.011a2.323 2.323 0 00-.267-.022 5.844 5.844 0 00-.281.005c-.045.002-.091 0-.136 0-.021 0-.009.076-.01.095-.02.198-.201.292-.368.197-.019.05-.033.143-.069.181-.035.039-.13.062-.18.08-.1.036-.219.05-.323.064-.032.005-.127 0-.151.02-.036.033-.01.13-.053.174-.036.038-.171.091-.145.159.02.05.011.052-.015.111a.695.695 0 01-.078.133c-.017.024-.037.053-.062.072-.035.025-.056-.011-.077-.001-.066.031-.135.185-.173.25-.173.287-.426.539-.768.603-.2.038-.39.095-.594.061-.07-.01-.138-.039-.206-.056-.085-.02-.044.041-.063.098-.02.055-.117.013-.156.032-.048.023.033.072.03.09-.015.086-.2.168-.204.031-.005-.134.011-.148-.105-.213-.07-.038-.107-.162-.144-.23-.023-.043-.193-.075-.237-.091a1.065 1.065 0 01-.206-.096c-.063-.039-.148-.117-.22-.134-.171-.04-.357-.062-.523-.12-.15-.053-.3-.136-.441-.208-.165-.086-.355-.142-.461-.297-.061-.09-.078-.171-.188-.167a.497.497 0 01-.225-.04c-.196-.07-.394-.138-.552-.28-.057-.05-.144-.079-.192-.14-.035-.045-.066-.095-.098-.144-.043-.068-.141-.079-.215-.105-.09-.033-.128-.152-.217-.176-.034-.008-.075-.11-.092-.104l-.118.035c.043.123.118.26.245.319.078.036.226-.016.279.046.094.113-.002.14-.109.138-.09 0-.226.012-.3-.04-.108-.08-.193-.178-.3-.256-.112-.082-.13-.102-.177-.234-.032-.088-.024-.214.057-.257.053-.03.001-.077-.022-.125-.02-.042-.013-.086-.012-.132.09.092.17.195.259.286.04.042.087.102.144.078.06-.024.007-.083-.013-.136-.08-.205-.274-.343-.37-.54-.05-.106-.03-.192-.056-.303a5.102 5.102 0 00-.091-.336c-.016-.051-.045-.11-.051-.164-.008-.073.03-.087-.029-.137-.116-.098-.13-.19-.138-.335.05.081.086.136.16.194l.007-.542c.001-.069.032-.263-.005-.32-.068-.105-.152.046-.193.093l.062-.2c.02-.068.008-.074-.033-.136-.027-.042-.01-.14-.012-.19-.001-.06.029-.043.086-.048-.038-.07-.07-.14-.1-.215-.02-.048-.077-.12-.078-.17 0-.022.041-.075.026-.091l-.087-.09c-.046-.047-.1-.043-.166-.053l-.002.154-.161-.156c-.083.107-.07.213-.062.345-.081-.054-.103-.055-.113-.15-.014-.134.014-.03.078-.1.03-.033 0-.127.032-.174.044-.063.112-.052.154-.102.027-.033.007-.14.05-.157a1.05 1.05 0 00.185-.094c.048-.03.128.008.104-.08-.009-.034-.086-.089-.113-.117-.059-.06-.07-.01-.145.011-.064.019-.129.037-.194.054-.051.014-.144.01-.166.054-.035.068-.06.105-.126.142-.159.088-.109-.181-.108-.26 0-.026-.08-.115-.104-.126-.07-.034-.098.032-.133-.069l.125-.017c-.024-.056-.06-.09-.022-.14.035-.048.012-.083-.001-.14-.016-.068-.18-.072-.241-.098.028-.061.028-.098.042-.16.019-.084.05-.113-.024-.16-.029-.02-.104-.131-.117-.132-.08 0-.122-.021-.107.076a.293.293 0 01-.143-.107c-.008.022-.023.043-.03.066-.02-.098-.02-.129-.097-.192-.068-.055-.11-.064-.197-.041-.11.03-.106.067-.107.171a.377.377 0 00.064.24c.099.123.26.134.345.264.016.024.15.092.15.077-.002.106-.035.08-.136.086l.044.138c.002.006-.048.053-.054.076-.017.07-.053.175.013.234.058.052.176.086.087.161-.068.059-.087.13-.11.215.048-.018.09-.02.108-.07.016-.045.027-.123.096-.1.05.016.088.17.046.198-.084.054-.127.089-.228.087-.125-.001.082.102.11.117l-.153-.021c.006.067.09.077.142.097l-.16.005c-.071.002-.07-.008-.07.064-.002.087.056.165.103.233l.16.239c.051.076.063.159.086.248.048.186.035.33.02.52-.005.048.101.184.126.233.037.07.046.144.088.217-.067-.04-.094-.084-.158-.035-.056.042-.072.093-.103.157-.089-.062-.127-.065-.22-.01-.056.031-.123.037-.185.051-.08.018-.234-.069-.284-.126-.08-.092-.08-.215-.102-.327-.014-.072-.03-.121-.01-.192a.236.236 0 000-.168c-.034-.122-.047-.248-.078-.37-.022-.087-.161-.186-.222-.249a.416.416 0 00-.156-.082c-.025 0-.112.097-.14.057-.059-.079-.057-.067-.15-.035-.046.017-.103.015-.152.02l-.007-.135c-.001-.026-.03-.042-.027-.068.002-.02.021-.09 0-.097a1.31 1.31 0 00-.159-.044c-.026-.005-.218-.044-.194.05.023.09.038.127.005.213l-.066-.068-.05.124c-.006-.081.013-.128-.084-.125.066-.055.08-.169-.008-.21-.068-.033-.092-.066-.142-.128-.026.117-.036.216-.137.286.06.047.084.055.09.13.006.063-.087.045-.14.052.015-.091.035-.174-.039-.25-.03-.03-.12-.026-.133-.068l-.034-.107c.076.019.15.039.223.063.088.028.074-.057.074-.118 0-.006-.175-.018-.202-.022-.114-.017-.003-.07-.057-.137-.046-.056-.116-.116-.149-.18-.03-.062-.038-.15-.055-.216-.032-.125-.033-.262-.043-.39l-.096.009c.003-.026-.003-.085.011-.105.009-.013.042 0 .053-.016.043-.06.063-.088.129-.12.047-.023.115-.008.17-.029.052-.02.054-.067.073-.118-.071.009-.135.014-.202.041-.021.009-.134.08-.14.077-.055-.032-.139-.056-.157-.12a.567.567 0 01-.016-.176.514.514 0 01.038-.203c.016-.042-.038-.146-.05-.189-.03-.106-.034-.228-.056-.338.15-.073.177.306.187.386.066-.101.123-.202.167-.315-.074-.023-.156-.033-.171-.126-.02-.12.062-.108.147-.113.077-.005.14-.037.22-.036.076 0 .139-.03.21-.055-.054-.057-.15-.04-.22-.075-.043-.022-.091-.038-.121-.077-.027-.035-.039-.072-.087-.064l.008.134c-.064-.091-.115-.11-.044-.199.039-.049.135-.029.166-.074.029-.042.124-.142.02-.168-.08-.02-.143-.029-.207-.08a2.06 2.06 0 01-.57-.758c-.032-.069-.038-.148-.071-.217-.052-.107-.082-.09-.2-.104-.139-.017-.198-.206-.256-.307a.58.58 0 01-.079-.445c.011-.062.054-.124.086-.178a.32.32 0 00.057-.206c.032.015.102.032.124.059.015.018.01.114.033.115.112.008.154.02.244-.045-.09-.12-.16-.199-.159-.355l.003-.216c0-.052-.197-.008-.22 0 .069-.05.122-.057.102-.143-.011-.048-.07-.114-.07-.155.001-.112-.024-.288.14-.226 0-.113.014-.238-.025-.346-.025-.067-.044-.101-.111-.102-.046 0-.088.005-.113-.035-.072-.114-.001-.196-.044-.312-.041-.11-.114-.19-.14-.311-.048.022-.127.052-.165.012-.058-.06-.124-.09-.157-.174-.034-.087-.025-.12-.09-.193-.042-.046-.064-.107-.092-.162.08.035.191.102.244.003a.373.373 0 01-.24-.216c-.038-.077-.087-.183.037-.196-.08-.055-.04-.113-.026-.19.018-.099.057-.095.151-.118l-.027-.08c-.027.033-.173.052-.172.061.001.02.008.047.005.067l-.036.007c-.005.029.004.064.006.094-.125.004-.24 0-.175.148-.037-.009-.153-.043-.186-.023-.071.04-.002.1.027.144-.092.02-.136.011-.223-.028-.07-.03-.137-.117-.207-.129.019.039.047.152.079.172.092.06.01.054-.053.037.018.073.006.087.081.088l.155.001c.07.001.253.092.2.176a.246.246 0 00-.244-.068c-.04.008-.077.044-.123.049-.041.004-.088-.006-.13-.01.004-.037.031-.167.004-.192a.926.926 0 00-.172-.118c.122-.08.033-.172-.028-.274-.048-.08-.271-.029-.335-.004.09-.098.165-.124.296-.09-.03-.082-.16-.233-.264-.169.05-.096.143-.166.224-.056.018.025.023-.027.041-.005l.066.08c.036.043-.023.087.055.116.024-.044.037-.106.09-.11a.627.627 0 00.12-.017c-.007-.07-.184-.218-.25-.238-.118-.035-.237.033-.358-.01a.285.285 0 01-.205-.288c0-.057.002-.152-.048-.194-.036-.03-.132-.03-.18-.03-.078-.002-.1-.053-.171-.075-.049-.015-.124-.001-.176.002-.069.003-.117.007-.177-.027-.035-.02-.138-.005-.153-.03-.037-.06-.068-.132-.124-.175-.06-.046-.094.063-.141.034-.029-.017-.13-.125-.148-.123a.604.604 0 01-.163.004c.028-.098.002-.096-.077-.16-.027.104-.097.157-.105.26-.01.12-.055.16-.184.153-.228-.013-.422-.078-.469-.329-.012-.066-.05-.233.064-.237.056-.002.11.008.157-.025.046-.034.095 0 .126-.05.028-.042 0-.08-.03-.118-.045-.059-.068-.048-.143-.049-.04 0-.02-.215-.101-.233-.026.099-.022.264-.1.324a.436.436 0 01-.317.073c-.002.092.03.142.065.226.03.071.101.2.034.274-.013.014-.06-.003-.077.009-.016.01-.014.046-.03.057-.034.025-.053.037-.095.037-.103-.001-.109-.085-.117-.179-.008-.092.005-.036.062-.08a.314.314 0 00.068-.086c.05-.104-.034-.13-.12-.152-.085-.022-.167-.065-.246-.1-.095-.044-.099-.084-.08-.175-.107-.002-.157-.006-.21-.099a3.087 3.087 0 01-.12-.241c.042.044.114.073.151.117.041.048.048.107.097.157.026.027.135-.013.108-.057a5.014 5.014 0 00-.103-.161c-.068-.1-.156-.155-.24-.235a1.363 1.363 0 01-.243-.324.707.707 0 01-.098-.33c-.004-.076-.078-.312-.033-.341.055-.036.01-.083.023-.14.013-.056.035-.116.04-.173.01-.148.027-.22.184-.25-.06-.038-.123-.112-.19-.079-.04.02-.117.145-.14.142a9.357 9.357 0 00-.469-.043c-.03-.002-.044.134-.089.15a.528.528 0 01-.255.046c-.138-.015-.272-.067-.402-.11-.033.12-.034.17-.137.238.037.013.116.023.143.05.027.026.03.08.051.112.017.023.051.098.08.101.076.01.06.021.115.058.165.11.292.276.417.43.06.073.129.139.195.207.02.02.01.065.022.09.014.031.048.062.07.089.109.139.206.283.31.427.199.277.375.558.553.85.085.14.2.31.205.481.004.109.007.18-.028.28-.023.067-.03.168-.065.225-.06.095-.148.094-.243.093-.032 0-.064-.052-.093-.049-.027.003-.08.071-.1.09-.087.076.086.133.116.16.059.053.09.118.154.17.063.049.106.145.164.204.033.034.154.007.149.053-.003.028.025.039.043.058.02.023-.085.104-.067.129.023.032.014.052.035.087.017.027.105-.048.123-.02.025.041.056.006.085.044.018.022-.083.135-.066.157l.22.276c.025.033-.027.067-.002.1.024.033.146.172.17.204 0 .001-.037-.114-.047-.173-.007-.036.032.004.035-.028.003-.03-.03-.132-.012-.144.054-.037.1.084.157.052.058-.033.227-.085.253-.083.074.005-.059.067.02.072.105.007.122.225.127.232.056.078-.381.032-.31.096.034.032-.043.188-.044.233 0 .03.048.064.066.084.114.125.196.276.29.416.104.157.227.305.34.456.19.251.386.497.572.751.208.284.397.58.604.865.205.282.421.56.586.867.077.143.192.314.218.474.016.097.017.446.15.447.194.003.317.01.491-.086.017-.01.014-.213.009-.233-.023-.085-.112-.11-.18-.146.102-.086.07-.113-.005-.2-.084-.098-.12-.138-.25-.14.094-.109-.083-.25-.155-.331-.08-.09-.148-.196-.236-.277-.108-.1-.2-.19-.26-.329-.035-.083-.1-.298.024-.335.097.17.178.348.276.516.05.085.07.172.147.236.031.025.187.189.214.183.037-.008.122-.061.157-.053.027.006.068.08.084.105.055.09.124.134.2.205.092.085.123.12.243.159.066.021.157-.099.198-.144-.056-.02-.112-.04-.168-.057-.094-.03-.109-.045-.168-.126-.08-.11-.044-.231.026-.329.012.021.035.037.047.058.008-.018.027-.095.047-.095s.114-.012.127.001c.042.047-.107.116-.108.167 0 .098.072.112.16.109.12-.004.134-.03.145.091l-.106-.001c.07.08.065.078.167.048.05-.015.11.024.158.042.03-.157.031-.3.025-.46.024.019.141.148.135.15.093-.033.079.016.111.103-.068-.013-.153-.045-.154.063-.001.09.01.135-.07.193-.017.012-.184.07-.176.045-.032.092-.007.115.04.202-.093.064-.13-.092-.211-.031a.42.42 0 00-.04.134c.009.022.086.051.108.064.02.013.06.09.08.077.03-.019.09-.04.103-.074.02-.046.048-.053.093-.077.021-.011-.005-.087-.009-.11l.037.096a3.12 3.12 0 00.09-.22l-.023.22c.11.002.091-.031.174-.093.037-.028.073-.018.083-.066l.025-.115c.049.036.12.067.122.137.002.052-.119.081-.159.102-.074.04-.025.08-.073.124-.037.032-.11-.007-.154.036-.02.02-.043-.005-.066.013-.031.024-.01.065-.06.08-.022.006-.047.003-.067.01-.022.01-.023.048-.05.048-.122-.001-.183-.08-.284-.147-.026.065-.012.115-.032.177-.015.05-.032.106-.017.158.013.047.041.144.12.116.058-.02.05-.119.05-.162.066.102.147.205.275.233.006-.049.015-.095.002-.144.041.001.13.019.113-.055-.013-.057-.022-.113-.053-.164.068.06.125.09.21.127-.06.077.025.064.015.105-.009.038-.05.115-.045.15.019.12-.062.181-.063.29-.002.101.072.197.063.308-.002.018-.048.035-.034.054l.056.074c.02.027.079.041.11.056-.09.007-.205-.025-.22.073-.004.023.112.038.135.044.034.009.032.064.005.064-.164-.002-.05.032-.042.125.004.056.08.132.106.192a12.95 12.95 0 01-.227-.174c-.042-.033-.071-.037-.124-.049-.023-.005-.01-.094-.009-.117-.02.007-.047 0-.067.009.002-.135-.02-.23-.16-.29-.079-.033-.077.028-.075-.086 0-.052-.041-.082-.066-.126-.051-.093-.062-.206-.13-.285-.119-.136-.162.147-.176.223a.585.585 0 01-.063-.317c-.154.077-.119.265-.104.405.011.106.212.296.276.379.199.26.343.573.505.857.182.32.289.648.397.999.026.083.044.167.063.252.026.12.039.122.145.188.125.077.368-.086.453-.17.11-.107.24-.23.404-.228.088.001.177 0 .265.006.135.008.14-.01.16.124-.032-.003-.193-.033-.215.004-.037.062-.087.117-.056.194.04.1.101.107.193.108.097 0 .076-.067.14.04-.202.032.193.186.238.156h-.009l.192.012c-.054.033-.088.068-.15.061-.056-.006-.113-.016-.169-.017-.09-.001-.093-.003-.147.068-.042.054-.07.05-.14.053-.114.004-.163.06-.241.144-.073.078-.191.144-.153.251.011.032.076.328.03.281-.07-.073-.102-.099-.126-.194a.574.574 0 00-.067-.15c-.028-.05-.087-.08-.128-.12-.052-.05-.083-.118-.132-.172-.065-.073-.172-.218-.265-.226.095.374.253.729.428 1.073.076.148.164.29.246.434.031.056.023.069.084.05.042-.012.096-.02.135-.04.07-.037.133-.11.194-.161l-.069.133.201.02c.044.005.073.091.094.128-.031-.019-.117.117-.15.16-.038.046-.068.023-.13.015-.05-.007-.119-.078-.152-.048l-.159.138c-.021.018-.034.15-.027.178.013.06.087.135.12.186.088.134.108.238.14.397.024.122.009.253.038.374.036.145.072.286.116.428.025.078.037.153.08.223.057.097.06.096.172.102.095.006.081-.022.152-.072.05-.036.122-.056.179-.083a3.39 3.39 0 01-.131.187c-.05.068-.078.07-.167.069-.173-.003-.292.005-.407.146-.059.071-.072.139-.093.231-.018.082.054.168.094.236.043.074-.001.339-.002.427.05-.05.06-.063.072-.131.005-.026.01-.129.035-.14.099-.043.171-.046.28-.05 0 .047.007.084-.02.124-.03.044.003.07.027.115-.026.011-.065.02-.087.037-.02.018-.021.058-.046.07-.06.032-.11.053-.153.104-.06.071-.092.102-.093.2-.001.081.026.151.076.037.033-.078.114-.172.213-.123.058.03.075.097.06.15-.036.125-.234.112-.123.271-.144-.038-.313-.065-.404-.189-.021-.03-.171.035-.207.048-.084.031-.019.08-.01.156.022.172.063.336.054.51a1.076 1.076 0 01-.253.692c-.07.079-.068.088-.065.194.004.184-.008.365-.02.549-.02.294-.08.59-.108.885zM32.273 67.83c.095-.449.087-.868.011-1.318-.033-.194.011-.412.037-.605.028-.203.234-.365.227-.556-.003-.09-.064-.218-.045-.298.03-.121.087-.159.162-.257.068-.088.111-.21.2-.278.098-.075.126-.196.247-.24.232-.084.094-.445-.022-.588-.066-.08-.397-.46-.338-.542.095.147.3.243.435.35.156.123.204.28.246.464.167-.151.384-.242.578-.355.203-.118.388-.29.6-.384.207-.094.392-.295.6-.365a.837.837 0 00.338-.197c.083-.072.19-.108.27-.185-.077-.072-.17-.14-.235-.223-.104-.13-.151-.275-.239-.414-.144-.228-.573-.19-.615-.46l.545.29c.15.08.389.206.512.327.088.087.14.214.225.306.115.126.128.078.272.015.079-.035.196.03.248-.082.028-.061.006-.262-.084-.25.017-.156.156-.297.236-.428.097.116.127-.044.22-.036.09.008.183.214.276.243.077.024.164-.024.24-.016.118.013.154.084.209.175-.288.086-.682.078-.896.286.242.003.478-.07.718-.094.11-.01.206-.04.309-.083.1-.041.153-.12.262-.162-.085.1-.175.14-.116.262.032.066.19.05.246.139.082.126.45.195.564.097-.154-.054-.165-.212-.185-.353-.021-.145.053-.25.089-.387.05.038.063.09.079.146.011.04-.04.05-.044.085-.005.042.03.042.014.096a.285.285 0 00-.016.098c-.002.116.152.424.297.255.056-.065.106-.13.168-.19.022-.021.077-.02.09-.041.021-.031.009-.09.021-.125.033-.09.239-.397.005-.393.065-.09.031-.208-.074-.236-.096-.025 0-.156-.15-.179-.12-.018-.146.095-.223-.047-.038-.07-.2-.129-.215-.026-.006.035-.068.296-.12.2-.028-.049.049-.205.022-.282-.016-.046-.183-.136-.193-.069-.014.097-.02.259-.145.27.066-.079.097-.175.06-.276-.069.031-.162.102-.234.117-.105.022-.182-.019-.218.107l-.066-.106-.02.115c-.078-.007-.044-.076-.04-.138.005-.078.095-.066.165-.081.064-.015.309-.057.333-.097.03-.048-.053-.083-.095-.1-.09-.035-.088-.052-.122-.144-.042-.113-.064-.237-.091-.355a2.19 2.19 0 01-.044-.83c.016-.116.006-.245.054-.352.08-.181.053-.185-.123-.261.077 0 .206.033.241-.04.048-.097.11-.21.032-.312.08.067.172.13.278.042.043-.036.034-.137.079-.172.032-.025.112-.026.155-.041.107-.04.235-.077.327-.143.038-.027.102-.096.149-.096.033 0 .17.021.182-.01.1-.263.224-.356.497-.423.142-.036.13-.203.207-.313a.838.838 0 00.148-.305.448.448 0 01.195-.268c.048-.037.093-.346.122-.425.092-.245.193-.483.301-.721.035-.077.111.008.067-.102-.03-.072-.01-.094.019-.168.04-.104.045-.238.115-.326.06-.075.192-.208.282-.244.098-.04.23.05.335.076.032-.078-.003-.111-.05-.165-.047-.053-.03-.094-.026-.165.004-.08.008-.087.061-.145.043-.046.132-.03.165-.07.012-.014.012-.156.015-.18.01-.068.054-.072.114-.101.075-.037.021-.067.068-.119a.585.585 0 01.174-.113c.11-.053.108-.214.204-.242.18-.052.07-.145.07-.283.003-.2.126-.517.284-.649.218-.182.452-.398.586-.648.063-.117.109-.178.142-.311.01-.042.067-.1.107-.115.023-.008.19-.097.068-.121-.147-.03-.194-.042-.296-.153-.124-.135-.108-.244-.116-.422-.003-.066 0-.253-.056-.296-.077-.06-.133-.082-.176-.174-.026-.057-.11-.066-.143-.116-.138-.207-.084-.376-.036-.61.016.016.042.022.057.038-.039-.147.302-.686.415-.434-.052.043-.235.143-.19.206.046.062.172-.039.226-.08.035-.027.083-.038.123-.054.064-.026.04-.091.065-.127.068-.096.188-.126.19-.256 0-.056.106-.175.152-.2.07-.04.215-.005.22-.093.015-.204.096-.355.07-.558-.04.06-.082.135-.148.168-.022.012-.204.055-.215.072-.067.112.198.13.244.04.003.173-.132.152-.253.216-.077.04-.112.121-.19.159-.088.043.028.146-.074.179-.086.027-.113.05-.21.056-.118.007-.051-.042-.153-.072-.091-.028-.238.196-.27.044-.03.037-.113.15-.16.156-.042.007-.191-.065-.24-.077-.043-.01-.128.126-.192.08-.077-.056.104-.119.14-.125.08-.014.123-.063.183-.109.03-.024.147.056.158-.016.013-.085.084-.024.141-.045.074-.028.085-.14.173-.034.001-.024.02-.047.022-.072.09.072.089-.04.145-.091a.217.217 0 00.107.066c.009-.068.051-.233-.033-.269-.151-.065-.083-.122-.04-.235.013.04.082.315.17.207.025-.03-.004-.03-.027-.06-.053-.067.024-.024.036-.03.015-.008.068.005.085.007.036.003.01-.047.024-.07.01-.02-.02-.042-.003-.069.02-.033.047-.06.072-.09.045-.052.028-.13.057-.171.025-.036.137-.072.138-.098.007-.09.024-.178.024-.267-.11.098-.032.216-.157.285-.044.024-.112.039-.149.071-.037.032-.05.134-.096.124-.035-.008-.188-.032-.17-.106.016-.067.127-.033.12-.088-.018-.133.164-.133.086-.29-.034.058-.094.215-.196.17-.104-.046.02-.213-.12-.189.065.07.006.193-.004.28-.043-.057-.077-.128-.149-.152l-.018.273c-.045-.09-.115-.171-.09-.27.022-.09.034-.178.04-.27-.188.033-.12.15-.14.308-.188-.012-.112-.045-.15-.21 0 .075-.05.093-.112.114-.06.02-.043.068-.07.113-.019.032-.111.092-.058.133.035.027.094.08.14.062.062-.024.153-.173.233-.098.144.136-.116.17-.159.215.007-.008.143.22.168.253-.057-.04-.129-.116-.178-.03-.02.034-.027.137-.081.119-.027-.009-.062.002-.087.015.013-.105.01-.215.09-.294-.063.015-.202.028-.203.111 0 .032.01.053-.018.07-.047.03-.022.07-.027.075-.063.048-.171.006-.181.098-.004.037.063.116.063.173-.001.057.27.003.323-.003.075-.008.084.048.13-.053.023-.051.117-.06.166-.051-.013.023-.009.056-.022.079.1.004.196-.01.295-.026-.129.126-.297.156-.477.192-.065.013-.595.048-.369.155-.077.053-.26.057-.299.121a.254.254 0 01.133.107c-.165-.002-.322-.043-.488-.054.1-.02.166-.066.25-.121.026-.016.113-.017.15-.03.036-.015.045-.1.057-.134.02-.064.067-.22 0-.275-.063-.051-.232.005-.26.074.001-.03-.016-.174.015-.183.055-.017.14.032.16-.026.029-.081.106.028.107-.084 0-.016.11-.042.136-.086-.119-.068-.024-.115.06-.114.06 0 .062-.105.172-.094-.108-.032-.369-.114-.461-.023-.11.107-.106.268-.3.254.106-.103.108-.163.11-.31 0-.038.023-.047.05-.074.041-.04-.026-.036-.01-.065.032-.058.05-.09.126-.104.02.25.292-.024.404-.081l-.105-.069c.083-.05.296-.027.184-.17.074.02.11-.014.078-.086.087-.017.177.188.168-.012-.002-.054-.079-.153-.149-.115-.08.043-.251.11-.261.215-.014.147-.095.15-.23.166.006-.08.013-.16.012-.24-.085.052-.096.194-.16.226-.1.048-.204.075-.293.14-.117.087-.171.05-.192.207-.019.15.131.047.178-.003.13.096-.094.151-.152.186-.036.021-.19.208-.2.113-.006-.07.011-.23-.09-.247-.067-.011-.307.225-.308.256a.076.076 0 01.008-.02c-.07.068-.075.158-.137.219-.062.06-.275.195-.22-.003-.108.087-.252.16-.35.255-.077.076-.066.162-.127.23-.142.16-.367.178-.378.415-.194-.034-.345-.162-.495-.284l.144-.065a7.833 7.833 0 01-.278-.429c-.081-.137-.097-.32-.125-.476-.032-.18-.056-.3.047-.456.065-.099.05-.181.05-.292.002-.114.051-.226.053-.344-.079.025-.15.042-.231.054a.545.545 0 00.061-.296c.001-.102-.123-.152-.21-.092-.178.124-.3.184-.52.115-.184-.057-.297-.24-.426-.373-.021-.021-.118-.071-.123-.097-.007-.033.058-.07.045-.106a1.458 1.458 0 01-.079-.297c.121.037.098-.254.13-.344.058-.166.133-.27.31-.274.173-.005.32.013.488.052.099.023.315.196.382.131.137-.134-.213-.221-.285-.253-.15-.066-.257-.105-.43-.074-.233.042-.843-.053-.905.279.025 0 .127-.015.144.001a.52.52 0 01-.002.154c-.09.107-.22-.073-.222.112-.001.096-.015.21-.118.234-.124.029-.09-.142-.084-.227-.186.167-.4.268-.588.435-.086.078-.212.122-.292.197-.033.031-.058.116-.095.158-.037.04-.15.031-.203.038-.061.008-.13.214-.173.265-.076.091-.185.19-.222.307-.088.277-.077.52-.054.807.02.257.006.521.008.779.001.103.043.21.036.312-.01.122-.082.239-.093.362-.009.094.015.294-.057.36-.12.112-.204.205-.294.342-.138.21-.197.466-.326.681-.136.228-.31.415-.51.586-.082.07-.168.137-.252.206-.111.092-.225.024-.36.048-.135.024-.198.064-.34.058-.133-.007-.22.02-.199.184.018.135.035.244.015.378-.018.123-.116.216-.133.334-.037.266-.035.54-.16.777-.127.237-.026.49-.066.749-.041.265-.179.447-.256.699-.03.1-.158.16-.159.234-.001.137-.076.238-.106.37a2.407 2.407 0 01-.09.315c-.02.052-.033.137-.072.178-.047.049-.099.09-.124.154-.05.125-.102.22-.18.331-.069.098-.167.163-.235.258-.08.11-.161.21-.253.312-.076.084-.13.24-.2.338-.072.1-.088.207-.16.287-.069.076-.171.196-.258.243-.106.058-.25.105-.331.196-.079.087-.151.23-.262.267-.137.047-.25.081-.393.095-.106.01-.197.176-.265.238-.08.072-.204.165-.3.208-.042.018-.137.007-.161.048a.939.939 0 01-.124.17c-.074.078-.06.211-.134.304-.031.04-.08.071-.118.105l-.093.083c-.024.022.004.058-.012.078a1.277 1.277 0 01-.274.226c-.08.05-.143.228-.201.306-.096.128-.155.156-.302.221-.048.021-.118.015-.17.02-.052.005-.124.097-.163.13-.215.184-.213.45-.356.676-.054.085-.054.08-.155.079-.046 0-.073.089-.098.123-.023.031-.066.105-.106.104-.089 0-.14-.016-.205.048-.104.101-.185.11-.322.109-.117-.001-.23.111-.322.169-.183.115-.328.268-.54.37-.071.036-.155.2-.21.266-.075.088-.136.194-.221.272-.073.066-.207.184-.131.304.078.124.2.266-.023.215-.177-.04-.248-.242-.418-.086-.121.11-.188.255-.29.385-.079.102-.256.095-.381.143-.158.061-.243-.004-.3-.155-.211.146-.374.252-.635.259a3.02 3.02 0 01-.125 0c-.107-.001-.062.001-.116.075-.015.02.01.047-.011.069l-.081.082c-.042.043-.04.104-.03.157.004.026-.149.18-.174.232-.05.108-.136.174-.228.248a1.057 1.057 0 00-.217.224c-.07.102-.172.127-.285.17.042.111.244.055.242.206-.002.177-.126.16-.27.158-.176-.003-.047.143-.159.224-.031.024-.158.074-.168.098-.022.054-.044.121-.082.166-.085.101-.153.138-.179.285-.005.028-.005.07-.017.097-.007.015-.062.012-.068.027-.019.052-.002.14-.002.198-.002.176-.038.259.116.36.1.066.268.194.192.338-.054-.167-.057-.17-.221-.228-.172-.06-.163-.072-.205-.247-.072.049-.09.129-.146.17-.02.015-.064-.009-.089.007-.034.022-.073.042-.104.068-.021.018-.155.145-.155.17 0 .076.126.078.065.174-.065-.048-.113-.125-.187-.08-.095.056-.091.09-.119.198-.03.12.304.231.232.408-.047-.052-.147-.193-.224-.194-.125-.002-.26.027-.15.18.043.059.228.13.107.225-.113.088-.071.154-.055.294-.1-.083-.094-.086-.076-.216.017-.13.056-.139-.067-.24-.117-.095-.375.093-.41.219-.03.102.09.401.142.478.028.04.174.202.165.245-.013.063-.153.1-.194.16.048-.142.048-.223-.121-.25.13-.172-.002-.364-.129-.482-.055.077-.06.072-.134.102-.144.058-.032.089-.112.168-.023.022-.056.045-.074.072-.022.03.032.062-.011.089-.088.053-.035.108-.132.16-.16.087-.121.236.055.238.073.001.106.088.186.089.095.001.146-.005.22.06-.196.054-.473-.022-.655-.098-.064-.027-.046.244-.005.285.116.12.192.082.35.107-.04.044-.171.036-.179.065-.02.079.006.126.08.164-.067.148-.316-.3-.37-.379-.046.041-.23.196-.07.239.119.031.109.27.256.32-.156.058-.309-.379-.438-.255-.076.072-.003.433.027.516.03.083.06.156.107.229.069.105.121.058.242.034.066-.013.14-.123.182-.062.047.069.14.145.092.23-.1-.092-.167-.126-.305-.084-.068.02-.124.031-.179.076-.024.02-.042.131-.013.14.275.097.354.305.469.559-.125.011-.26-.298-.351-.383-.133-.124-.286-.205-.417-.327.047.001.189.029.195-.022.01-.087-.021-.127-.062-.205-.09-.174-.098-.294-.095-.491-.151-.015-.14.17-.215.28-.069.1-.057.063-.02.148.02.048.133.124.131.174-.002.058-.079.095-.122.087-.11-.02-.118-.043-.166.058a12.11 12.11 0 00-.188.415c.094.031.212.114.287.013.022.069.175.329.273.195.042-.057.064-.12.136-.128.07-.006.147-.041.155.055-.04 0-.135-.021-.164.01-.031.036-.095.143-.135.16-.128.052-.234-.097-.334-.13-.339-.11-.352.336-.313.543-.16-.036-.118.232-.12.334.056-.005.159.008.204-.025.09-.065.16-.133.278-.132.076.001.235-.122.297-.165.101-.07.195-.145.283-.23-.002.217-.17.242-.34.35l.307.013c-.106.022-.2.047-.302.085-.086.032-.164 0-.246.049a1.22 1.22 0 00-.251.182c-.059.057.011.227.015.298.123-.024.264-.048.366-.13.055-.045.033-.08.107-.108l.26-.098c-.037.16-.11.182-.258.242-.126.051-.39.107-.448.235-.1.216.203.08.264.084.158.012.327.008.482.034-.168.037-.288.087-.3.284-.082-.023-.247-.085-.324-.03-.115.08-.19.067-.314.113-.058.021-.103.026-.135.079-.043.07-.04.117-.117.08-.12-.055-.232-.037-.356-.003-.126.035-.152.215-.166.32-.025.193.03.225.097.388.04.095.001.271.043.34.062.106.212-.041.298-.1-.037.142.102.09.12-.017.016-.097.103-.193.148-.286.035-.074.04-.158.074-.23.047-.101.067-.103.175-.152-.092.128-.127.3-.178.449.172.06.27.014.403-.082.07.134-.358.211-.45.274-.115.079-.069.138-.084.266-.011.098-.05.194-.08.287l.163-.111c.05-.034.1.03.135.01.032-.019.05-.123.098-.157.047-.035.086-.08.127-.12.066-.064.086-.058.088-.16a.11.11 0 01.083-.11c.204-.06.26-.192.42-.326-.043.09-.077.208-.137.286-.036.047-.032.074-.091.08-.038.005-.165-.003-.18.051-.02.077-.048.087-.01.158.029.056.058.111-.023.11.008 0-.163.218-.207.254-.08.064-.08.203-.163.226-.147.04-.025.149.028.23.075.116.11.093.233.094.119.002.197.048.311.071-.034-.14.294-.082.383-.082.124.002.262.023.385.044.18.03.342.052.526.054.1.001.133.013.205-.05.06-.052.176-.053.253-.048.224.016.144-.073.162-.236.02-.173.179-.24.324-.291.112-.04.296.061.404.1.074.028.072.104.149.054.069-.045.099-.12.141-.19.038.075-.084.296-.051.321.095.073.185.139.281.208.186.135-.033.174-.05.286-.016.099.074.123.14.174.04.032.219.2.28.179.032-.012.035-.114.068-.124.042-.014.118.094.162.088.1-.013.13-.142.264-.14.107 0 .207.072.302.118-.018-.172.048-.302.25-.244.215.063.31.194.429.377.05.075.191.483.27.23.01-.027-.003-.059.006-.083.013-.036.057-.02.061-.067l.03-.306c.036.133.055.386.196.453a1.211 1.211 0 01-.261.208c.128.05.431.214.508.006.021-.058-.042-.211.038-.21.107.001.212.004.319.013-.05.089-.175.326.039.327a.44.44 0 00.29-.093c.07-.047.053-.18.092-.21.036-.026.144-.015.193-.024.148-.027.083.148.066.23-.029.133.212.122.274.241a.76.76 0 01.08.236c.007.043.18.024.22.021.128-.007.325.055.438.016.09-.03.404-.045.38-.162-.012-.064-.026-.147.059-.177.058-.02.041.215.037.245.062.121.222-.017.278-.076.14-.145.145-.04.318-.051.106-.007.249-.1.342-.142.05-.024.035-.06.035-.113.001-.08.043-.074.117-.104-.018-.004-.044-.006-.058-.019.017.015.163-.01.212-.006.109.01.135.035.219.107-.015-.204.096-.188.233-.295.058-.044.11-.086.134-.154.042-.12.011-.102-.101-.152.09-.055.657-.03.415-.314-.231-.27.133-.361.295-.502.094-.081.13-.176.238-.246.107-.07.166-.162.26-.247.19-.173.486-.33.512-.607.025-.256.058-.45.222-.663a.886.886 0 01.283-.269c.052-.03.109-.027.17-.033.076-.007.139-.049.208-.082.22-.107.514-.058.724-.16.028-.014.02-.047.057-.05.025-.001.073.005.097-.006.032-.015.11-.06.101-.095-.013-.057-.066-.086-.08-.135-.015-.058.023-.147.042-.2l.03-.087a.737.737 0 01-.179.125c-.034.016-.075-.001-.112.014-.018.007-.021.107-.039.137-.104.177-.259.213-.444.252.026-.112.149-.1.203-.18.043-.063-.001-.138.108-.133-.166-.054.074-.143.148-.172.136-.052.163-.147.002-.149-.136-.001-.125-.13-.272-.106-.085.014.119-.22.12-.225a.457.457 0 00.128-.286c-.192.007.084-.12.136-.14l-.02.008c.099-.066.101-.138.124-.245.024-.118.05-.126.126-.217.063-.076.114-.165.175-.244.013-.017-.07-.11-.058-.162.037-.162.194-.266.196-.412 0-.05-.111-.101-.132-.163-.02-.059.002-.14.012-.196.031-.18.102-.312.156-.484a.65.65 0 01.102-.208c.04-.05.15-.106.157-.171.023-.273.396-.562.544-.798zM20.946 78.169a.53.53 0 00-.21-.004c-.037.006-.06.138-.067.178-.012.08-.033.163-.022.245.012.09.12.187.165.27.075.141.09.305.043.457-.026.084-.078.084-.146.134-.051.037-.121-.047-.152-.096a.483.483 0 00.095.3c.037.053.132.154.065.193-.044.026-.116.008-.166.015-.146.02-.19.095-.25.222-.022.046.027.076.045.12a.41.41 0 01.021.188c-.006.071-.029.09-.075.146-.03.035-.102.047-.118.085l-.042.098c-.009.02-.05-.013-.071.017-.061.09-.06.184-.061.287 0 .06.293.11.334.09.03-.013.097-.153.074-.177-.043-.044-.124-.089-.089-.158.053.06.055.1.126.057.08-.049.023-.086.048-.151.022-.057.144-.112.18-.162.044-.06.115-.052.187-.064-.002.022.012.046.009.068.107-.035.471.095.532-.043.029-.064.083-.106.108-.17.033-.084.177-.091.256-.122.033-.013.221-.04.232-.058.028-.047.2-.01.26-.036.077-.033.056-.078.057-.157 0-.018.156-.008.192-.018-.038-.022-.105-.045-.133-.078-.068-.082-.007-.068.077-.066-.058-.11.137-.123.026-.236-.055-.057-.127-.159-.211-.16-.098 0-.12.08-.214.11-.014.004-.09-.016-.095-.027-.027-.067.117-.08.145-.095a.79.79 0 00-.19-.06c-.074-.014-.11-.09-.173-.107-.073-.02-.132.06-.18.103-.018.018-.064.118-.078.112l-.118-.047c.054-.06.144-.11.17-.184.034-.097.027-.179.076-.273.067.087.097.176.218.175-.011-.07.281-.035.329-.034.043 0 .002-.197-.02-.192-.127.03-.137-.027-.22-.103a7.559 7.559 0 00-.236-.21c-.049-.041-.054-.054-.079-.124-.01-.029.01-.11.001-.121a3.11 3.11 0 00-.198-.203c-.04-.037-.191-.065-.247-.092-.108-.05-.162.1-.21.158z" fill-rule="evenodd"/></svg>