<svg width="101" height="54" viewBox="0 0 101 54" xmlns="http://www.w3.org/2000/svg"><path d="M71.004 30.667L82.691 11.7a49.913 49.913 0 0117.926 38.31c0 1.048.06 2.38 0 3.125H78.74a27.664 27.664 0 000-3.125 28.103 28.103 0 00-7.737-19.344zM.67 49.965C.67 22.4 23.017.053 50.578.048c10.32-.012 20.069 3.028 28.471 8.96-19.149 14.454.028.015-19.12 14.47-7.584-2.75-15.819-1.998-23.024 2.02a28.138 28.138 0 00-14.43 24.533 27.664 27.664 0 000 3.126H.67c-.06-.787 0-2.078 0-3.192zM81.191 12.29h-.005l-22.551 36.35A9.367 9.367 0 1144.9 36.373l34.062-26.217c.271-.222.611-.344.963-.343.862.003 1.56.701 1.562 1.563.001.328-.103.648-.297.913z" fill-rule="evenodd"/></svg>