<svg width="81" height="100" viewBox="0 0 81 100" xmlns="http://www.w3.org/2000/svg"><g fill-rule="evenodd"><path d="M10.284 0h45.293l-.034.003s2.302-.101 4.536.857c1.896.814 3.176 2.033 3.176 2.033l.025.025 14.988 14.7.009.013s1.262 1.208 2.036 2.943c.825 1.851.664 3.753.664 3.753v64.96c0 5.67-4.615 10.287-10.284 10.287h-60.41C4.616 99.574 0 94.956 0 89.287v-79C0 4.618 4.615 0 10.284 0zm0 3.38c-3.856 0-6.905 3.051-6.905 6.907v79c0 3.857 3.049 6.908 6.905 6.908h60.409c3.856 0 6.904-3.052 6.904-6.907V24.256l.004-.072s-.022-1.445-.374-2.235c-.437-.979-1.338-1.93-1.338-1.93L60.94 5.353l-.006-.007a8.595 8.595 0 00-2.185-1.38c-1.325-.569-3.136-.587-3.136-.587H10.284z"/><path d="M20.22 71.114c-2.326-2.325.19-5.52 7.016-8.912l4.295-2.135 1.674-3.661c.92-2.014 2.294-5.3 3.052-7.302l1.38-3.64-.95-2.694c-1.17-3.312-1.586-8.29-.845-10.08 1.004-2.425 4.294-2.176 5.596.423 1.017 2.03.913 5.706-.292 10.341l-.989 3.8.871 1.479c.479.813 1.878 2.743 3.108 4.29l2.313 2.876 2.878-.375c9.144-1.193 12.276.834 12.276 3.742 0 3.67-7.18 3.973-13.209-.262-1.356-.953-2.288-1.9-2.288-1.9s-3.777.77-5.637 1.27c-1.92.518-2.877.842-5.689 1.791 0 0-.986 1.433-1.63 2.475-2.391 3.875-5.184 7.086-7.178 8.255-2.233 1.308-4.574 1.398-5.753.219zm3.648-1.304c1.307-.807 3.952-3.936 5.783-6.84l.741-1.175-3.375 1.697c-5.214 2.622-7.599 5.092-6.359 6.586.697.84 1.53.77 3.21-.268zm33.865-9.505c1.278-.895 1.092-2.7-.353-3.427-1.125-.566-2.031-.683-4.953-.64-1.795.123-4.682.485-5.171.595 0 0 1.586 1.096 2.29 1.499.937.535 3.215 1.53 4.878 2.038 1.64.502 2.59.45 3.309-.065zm-13.617-5.66c-.774-.813-2.089-2.51-2.923-3.771-1.091-1.431-1.638-2.44-1.638-2.44s-.798 2.564-1.452 4.108l-2.04 5.044-.592 1.145s3.145-1.032 4.746-1.45c1.695-.443 5.136-1.12 5.136-1.12l-1.237-1.516zm-4.388-17.597c.197-1.656.281-3.31-.251-4.143-1.476-1.613-3.257-.268-2.955 3.567.101 1.29.422 3.496.85 4.856l.78 2.471.548-1.861c.302-1.024.764-3.224 1.028-4.89z"/></g></svg>