<svg width="101" height="101" viewBox="0 0 101 101" xmlns="http://www.w3.org/2000/svg"><path d="M78.72 23.944v-.009l-.005.004a16.811 16.811 0 00-.003-.004v.008l-6.019 6.02 4.675 4.699.724-3.538a.792.792 0 01-.287-.082c-.19-.124-.28-.298-.281-.385-.001-.044-.003-.127 0-.17.017-.307.181-.293.28-.523.06-.135.156-.288.196-.446.061-.245.05-.485.045-.563-.006-.104-.04-.19-.045-.255-.012-.129-.098-.29-.147-.43a.883.883 0 01-.048-.236c.004-.073.022-.126.031-.178.026-.142.157-.267.292-.333.097-.048.193-.055.264-.062.079-.008.187.028.326.108a.54.54 0 01.177.213c.044.092.103.204.142.318.072.206.114.413.124.48.057.37.031.78 0 .956a3.014 3.014 0 01-.29.885 2.269 2.269 0 01-.26.4c-.048.058-.117.118-.168.176-.062.069-.178.113-.348.131l-.726 3.56c.866-.661 1.473-1.264 1.82-1.81.207-.325.564-.94.812-1.577.168-.433.276-.748.382-1.44a6.816 6.816 0 00.079-1.586c-.052-.892-.253-1.524-.379-1.97-.192-.68-.647-1.467-1.364-2.361zm11.524-4.037c16.874 21.835 12.847 53.222-8.993 70.091C59.41 106.872 28.033 102.84 11.164 81-5.71 59.165-1.683 27.787 20.153 10.914 41.993-5.96 73.37-1.933 90.244 19.907zM60.528 33.592c-3.598 1.642-9.455 6.609-18.96 16.074l2.703 2.702.9.906L63.54 34.907c.573-.573 1.3-.862 2.047-.992-1.363-1.022-2.673-1.412-5.058-.323zM68.63 40.6L49.406 57.494c1.71 1.714 2.65 2.649 3.131 3.135 7.616-7.225 14.865-14.595 16.093-20.028zM35.793 55.528c.03.048.058.044.087.039l7.789-1.681-3.155-3.15-4.711 4.706c-.015.01-.039.028-.01.086zm35.313-26.103l6.518-6.517a7.306 7.306 0 00-4.504-1.532 7.298 7.298 0 00-5.183 2.134 7.283 7.283 0 00-2.149 5.188c0 1.96.762 3.805 2.149 5.193a7.323 7.323 0 008.116 1.536l-4.942-4.937a.756.756 0 01-.005-1.065zM64.6 35.962L46.285 54.28l2.105 2.105 19.393-17.033a2.304 2.304 0 00.785-1.672 2.33 2.33 0 00-.68-1.724c-.905-.9-2.379-.9-3.29.005zm-34.172 39.07s.005 0 .01-.005c8.733-4.378 15.79-8.882 20.982-13.39l-2.962-2.958-7.784 1.209-15.414 15.414 4.932 4.932c.12.116.241.087.323.049.082-.049.168-.135.135-.299l-.843-3.608c-.125-.54.13-1.089.621-1.344zm-1.787 5.77l-4.441-4.44-3.767 3.766c-.014.01-.029.03-.014.068.014.043.043.048.057.048l8.165.559zm14.027-22.904h.014c.015 0 .044.005.058.005l4.379-.568-1.937-1.946-2.514 2.51z"  fill-rule="evenodd"/></svg>