<svg width="100" height="89" viewBox="0 0 100 89" xmlns="http://www.w3.org/2000/svg"><path d="M99.858 44.41c0-6.605-8.273-12.865-20.956-16.747C81.83 14.736 80.528 4.45 74.797 1.159 73.476.386 71.93.02 70.244.02v4.533c.935 0 1.687.183 2.317.528 2.764 1.586 3.963 7.622 3.028 15.386-.223 1.911-.589 3.923-1.036 5.976-3.984-.976-8.333-1.728-12.907-2.215-2.744-3.76-5.59-7.175-8.455-10.163 6.626-6.158 12.846-9.532 17.073-9.532V0c-5.59 0-12.906 3.984-20.305 10.894C42.561 4.024 35.244.081 29.654.081v4.533c4.208 0 10.448 3.353 17.074 9.471a95.999 95.999 0 00-8.395 10.143c-4.593.487-8.943 1.24-12.926 2.235a61.318 61.318 0 01-1.057-5.894c-.956-7.764.223-13.8 2.967-15.406.61-.366 1.403-.529 2.337-.529V.102c-1.707 0-3.252.365-4.593 1.138-5.711 3.293-6.992 13.557-4.045 26.443C8.374 31.585.142 37.825.142 44.41c0 6.605 8.273 12.865 20.956 16.748-2.927 12.926-1.626 23.21 4.105 26.504 1.321.772 2.866 1.138 4.573 1.138 5.59 0 12.907-3.984 20.305-10.894 7.399 6.87 14.716 10.813 20.305 10.813 1.707 0 3.252-.366 4.594-1.139 5.711-3.292 6.992-13.557 4.044-26.443 12.602-3.882 20.834-10.142 20.834-16.727zM73.394 30.855c-.752 2.622-1.687 5.325-2.744 8.028a96.19 96.19 0 00-2.662-4.878 109.975 109.975 0 00-2.927-4.756c2.886.427 5.67.955 8.333 1.606zM64.085 52.5c-1.585 2.744-3.211 5.346-4.898 7.764-3.028.264-6.098.407-9.187.407-3.07 0-6.138-.143-9.146-.386-1.687-2.42-3.334-5-4.919-7.724a105.872 105.872 0 01-4.228-8.09 105.99 105.99 0 014.208-8.11c1.585-2.743 3.211-5.345 4.898-7.763 3.028-.265 6.098-.407 9.187-.407 3.07 0 6.138.142 9.146.386 1.687 2.419 3.334 5 4.919 7.724a105.872 105.872 0 014.228 8.09 113.802 113.802 0 01-4.208 8.109zm6.565-2.642a87.106 87.106 0 012.805 8.09 91.22 91.22 0 01-8.374 1.625c.996-1.565 1.992-3.17 2.927-4.817a115.451 115.451 0 002.642-4.898zM50.04 71.545a83.794 83.794 0 01-5.65-6.504c1.83.081 3.7.142 5.59.142 1.91 0 3.8-.04 5.65-.142a79.335 79.335 0 01-5.59 6.504zM34.92 59.573a91.714 91.714 0 01-8.334-1.606c.752-2.621 1.687-5.325 2.744-8.028a96.19 96.19 0 002.663 4.878c.955 1.626 1.93 3.211 2.927 4.756zm15.02-42.297a83.794 83.794 0 015.65 6.504c-1.829-.08-3.699-.142-5.589-.142-1.91 0-3.8.04-5.65.142a79.335 79.335 0 015.589-6.504zm-15.04 11.972a112.286 112.286 0 00-5.57 9.695 87.106 87.106 0 01-2.805-8.09 98.71 98.71 0 018.374-1.605zM16.503 54.695c-7.195-3.069-11.85-7.093-11.85-10.284 0-3.191 4.655-7.236 11.85-10.285 1.748-.752 3.659-1.423 5.63-2.053 1.159 3.984 2.683 8.13 4.573 12.378-1.87 4.228-3.374 8.354-4.512 12.317a61.744 61.744 0 01-5.69-2.073zM27.44 83.74c-2.764-1.586-3.963-7.622-3.028-15.386.223-1.91.589-3.923 1.036-5.976 3.984.976 8.333 1.728 12.907 2.215 2.744 3.76 5.59 7.175 8.455 10.163-6.626 6.159-12.846 9.533-17.073 9.533-.915-.02-1.687-.204-2.297-.55zM75.65 68.252c.956 7.764-.223 13.8-2.967 15.407-.61.365-1.403.528-2.337.528-4.208 0-10.448-3.354-17.074-9.472a95.999 95.999 0 008.395-10.142c4.593-.488 8.943-1.24 12.926-2.236.468 2.053.834 4.025 1.057 5.915zm7.826-13.557c-1.748.752-3.659 1.423-5.63 2.053-1.159-3.984-2.683-8.13-4.574-12.378 1.87-4.228 3.374-8.354 4.513-12.317a64.465 64.465 0 015.71 2.073c7.196 3.07 11.85 7.094 11.85 10.285-.02 3.19-4.674 7.235-11.87 10.284zM49.98 53.7a9.289 9.289 0 110-18.577 9.289 9.289 0 010 18.577z" fill-rule="evenodd"/></svg>