<svg width="100" height="76" viewBox="0 0 100 76" xmlns="http://www.w3.org/2000/svg"><path d="M2.14 39.362c-3.971-.103-.885-9.156.02-11.584.885-2.428 9.815-.72 13.869.658C20.494 13.025 15.02 7.51 13.889 6.05c-1.132-1.46.309-2.016.309-2.016S23.457 1.11 27.346.329c3.889-.802 4.856.432 5.658 3.93 3.087 12.408-8.827 27.943-8.827 27.943s1.111 2.242 4.26 3.127c8.826-8.271 11.296-20.411 11.728-28.662-.042-.391-.288-2.943 2.078-1.482 2.366 1.461 10.885 8.704 12.407 19.383.494 4.32-2.551 5.782-3.25 6.255-9.137 6.543-17.285 8.272-18.396 9.095-.267.247-.432.432-.267.782 4.712 6.666 4.979 14.197 4.773 15.987.062 1.729-1.07 2.16-1.934.453C25.864 39.403 13.17 35.823 2.14 39.362zm95.35-4.012c2.49-2.366 3.045-1.194 1.831 2.16-2.016 6.379-20.123 21.564-21.358 22.799-1.235 1.234-1.749 1.728-2.14 3.127-1.235 5.37-2.099 6.07-2.695 6.893-.803 1.338-3.107 3.272-3.766 2.696-.638-.556-3.539-2.86-2.49-3.869 2.037-2.037 4.589 1.626 3.128 3.087 1.337-.967 2.428-4.548.864-6.05-3.827-4.773-7.428-.535-5.782 2.778-.596-.638-2.242-2.345-2.304-1.46-.062.884 2.798 3.436 3.415 4.115 2.223 1.77.7 5.576-2.304 2.51-7.86-8.436-21.296-14.774-23.087-16.173-1.79-1.4-1.481-2.798-.576-5.103.556-3.107-.123-6.852 0-7.49 2.264.144 2.531 2.758 1.893 6.811-.638 4.033 3.498 5.268 7.51 6.564 4.013 1.296 4.383-3.292 5.371-5.515 1.317-2.963 4.115-3.312 5.267-3.765 2.1-.74 2.531.226 4.013-.247-1.317-1.852-6.667-.967-7.12-.638-.452.33-2.345 1.05-3.127.967-.803-.082-1.152.453-.823.638.33.185.761.515.267 1.729-.493 1.214-2.16 1.008-2.366.76-.206-.246-3.806-2.797-5.7-3.826-1.892-1.05-.226-2.099.906-3.292 1.132-1.194-1.111-.535-5.247-1.112-4.136-.576-2.099-6.296 3.004-7.51 1.708-.617 6.173-2.84 8.683-4.918 4.65-4.012 4.589-2.716 6.646 3.848C60.37 39.3 65 43.17 69.733 41.42c12.921-6.77 1.275 5.802.823 6.275-.762.638.164 3.293 5.39 1.832C81.174 48.066 95 37.716 97.49 35.35zM50.267 50.556c.247.246 1.585.37 1.44-.885-.575-1.029-2.612-2.449-3.147-2.47-.515-.02-1.564.124-1.111 1.297 1.934 1.09 2.572 1.79 2.818 2.058z" fill-rule="evenodd"/></svg>