<svg width="100" height="75" viewBox="0 0 100 75" xmlns="http://www.w3.org/2000/svg"><path d="M85.995 43.143c-3.477.018-6.499.856-9.029 2.094-.928-1.839-1.857-3.477-2.02-4.679-.183-1.401-.401-2.257-.183-3.932.219-1.675 1.202-4.06 1.184-4.241-.019-.182-.219-1.038-2.221-1.056-2.003-.018-3.732.382-3.932.91-.2.528-.583 1.73-.838 2.967-.346 1.82-4.005 8.32-6.098 11.724-.674-1.33-1.256-2.494-1.383-3.423-.183-1.401-.401-2.257-.183-3.932.219-1.675 1.202-4.06 1.184-4.241-.018-.182-.219-1.038-2.221-1.056-2.003-.018-3.732.382-3.932.91-.2.528-.419 1.766-.838 2.967-.418 1.202-5.279 12.051-6.553 14.855a83.827 83.827 0 01-1.62 3.367s-.018.055-.073.146c-.346.674-.546 1.038-.546 1.038v.018c-.273.491-.564.946-.71.946-.11 0-.31-1.31.036-3.094.729-3.768 2.458-9.63 2.44-9.83 0-.11.327-1.129-1.129-1.657-1.42-.528-1.93.346-2.057.346s-.218.31-.218.31 1.583-6.59-3.022-6.59c-2.876 0-6.845 3.149-8.81 5.989a2447.66 2447.66 0 00-6.7 3.659c-1.074.6-2.184 1.201-3.222 1.766-.073-.073-.146-.164-.218-.237-5.57-5.953-15.874-10.158-15.437-18.15.163-2.912 1.165-10.558 19.787-19.842 15.328-7.554 27.525-5.46 29.636-.819 3.022 6.626-6.535 18.932-22.372 20.716-6.044.674-9.212-1.656-10.013-2.53-.837-.91-.964-.965-1.274-.783-.51.273-.182 1.092 0 1.566.473 1.238 2.421 3.422 5.716 4.496 2.913.947 9.994 1.475 18.568-1.839C57.288 28.29 64.788 17.967 62.585 9.32 60.382.546 45.819-2.348 32.039 2.55c-8.192 2.912-17.075 7.5-23.465 13.47C.983 23.12-.218 29.29.274 31.875 2.038 41.05 14.69 47.021 19.75 51.445c-.255.145-.491.272-.692.381-2.53 1.257-12.178 6.299-14.58 11.633-2.731 6.043.436 10.376 2.53 10.958 6.498 1.803 13.18-1.438 16.765-6.79 3.586-5.352 3.15-12.305 1.493-15.491-.018-.036-.036-.073-.073-.11.656-.382 1.33-.782 1.984-1.164a96.79 96.79 0 013.66-2.057c-.62 1.693-1.075 3.713-1.293 6.626-.273 3.422 1.129 7.864 2.967 9.611.82.765 1.784.783 2.403.783 2.148 0 3.113-1.784 4.187-3.895 1.31-2.585 2.494-5.589 2.494-5.589s-1.475 8.119 2.53 8.119c1.457 0 2.931-1.893 3.586-2.858v.018s.037-.054.11-.182c.145-.237.236-.382.236-.382v-.037c.583-1.019 1.893-3.33 3.841-7.172 2.512-4.951 4.934-11.14 4.934-11.14s.218 1.51.964 4.022c.437 1.475 1.347 3.095 2.076 4.66-.583.82-.947 1.275-.947 1.275l.018.018c-.473.619-.983 1.293-1.547 1.948-1.984 2.366-4.35 5.079-4.679 5.862-.382.928-.29 1.601.437 2.148.528.4 1.475.455 2.44.4 1.784-.127 3.04-.564 3.659-.837.964-.346 2.093-.874 3.149-1.657 1.948-1.438 3.131-3.495 3.022-6.207-.055-1.493-.546-2.986-1.147-4.388.182-.254.346-.51.528-.764 3.076-4.496 5.461-9.43 5.461-9.43s.218 1.511.965 4.023c.364 1.275 1.11 2.658 1.766 4.005-2.895 2.348-4.679 5.08-5.316 6.863-1.147 3.313-.255 4.806 1.438 5.152.765.164 1.857-.2 2.658-.546 1.02-.328 2.22-.892 3.368-1.73 1.947-1.438 3.822-3.44 3.713-6.153-.054-1.238-.382-2.457-.837-3.64 2.457-1.02 5.625-1.584 9.666-1.11 8.665 1.019 10.376 6.425 10.049 8.7-.328 2.276-2.148 3.514-2.75 3.896-.6.383-.8.51-.745.783.072.4.364.382.873.31.71-.128 4.551-1.84 4.715-6.026.273-5.352-4.824-11.195-13.835-11.14zM19.15 65.68c-2.876 3.13-6.88 4.314-8.61 3.313-1.857-1.074-1.129-5.698 2.403-9.011 2.148-2.02 4.915-3.896 6.754-5.043.418-.255 1.037-.619 1.784-1.074.127-.073.2-.109.2-.109l.437-.273c1.292 4.733.054 8.902-2.968 12.197zm20.935-14.236c-1.001 2.44-3.095 8.683-4.369 8.338-1.092-.292-1.766-5.025-.218-9.703.782-2.348 2.439-5.152 3.404-6.244 1.565-1.748 3.295-2.33 3.713-1.62.528.928-1.911 7.7-2.53 9.23zM57.36 59.71c-.418.218-.819.364-1 .255-.128-.073.181-.364.181-.364s2.167-2.33 3.022-3.386c.492-.62 1.074-1.347 1.693-2.167v.237c0 2.785-2.694 4.66-3.896 5.425zm13.326-3.04c-.31-.219-.255-.947.782-3.222.4-.892 1.348-2.385 2.968-3.823.182.582.31 1.147.29 1.675-.017 3.513-2.53 4.824-4.04 5.37z" fill-rule="evenodd"/></svg>