<svg width="100" height="91" viewBox="0 0 100 91" xmlns="http://www.w3.org/2000/svg"><path d="M0 32.163L21.94 2.91 49.989 0l28.26 2.91L100 32.163 49.988 90.326 0 32.163zm6.784-1.823h10.96l1.169-16.376L6.784 30.34zM23.726 6.847l-1.543 19.145L43.024 4.895 23.726 6.847zm33.095-2.025l20.734 22.32-1.079-20.156-19.655-2.164zm23.992 8.607l.993 16.824h11.536L80.813 13.429zM23.834 30.3h50.037L49.66 4.053 23.834 30.3zM7.206 34.415l29.757 34.554-18.378-34.554H7.206zm85.916-.101H80.046L60.202 72.755l32.92-38.441zm-69.996.098l26.461 49.612 25.674-49.612H23.126z" fill-rule="evenodd"/></svg>