<svg width="100" height="31" viewBox="0 0 100 31" xmlns="http://www.w3.org/2000/svg"><path d="M15.062 30.605C6.92 30.605.296 24.075.296 16.043v-1.228C.296 6.784 6.92.253 15.062.253h69.882c8.142 0 14.766 6.531 14.766 14.562v1.228c0 8.031-6.624 14.562-14.766 14.562H15.062zm35.901-1.963l-1.994-26.42H14.81C7.82 2.222 2.154 7.89 2.154 14.877v1.104c0 6.994 5.667 12.661 12.655 12.661h36.154zm19.265-17.296c0-.377-.179-.562-.543-.525-.012 0-.179.012-.494.043a3.134 3.134 0 01-.518.043l-.68-.074a.78.78 0 00-.184-.018c-.544 0-.821.21-.821.617 0 .395.222.593.672.593.087 0 .217-.019.383-.056.167-.037.297-.055.383-.055.197 0 .34.074.42.228.08.154.135.438.16.852v4.895c-.012.704-.21 1.062-.58 1.062-.16 0-.327-.019-.494-.056a1.943 1.943 0 00-.346-.055c-.4 0-.598.197-.598.586 0 .414.259.623.771.623.074 0 .377-.03.914-.092.432-.05.771-.074 1.03-.074.334 0 .63.018.902.055.537.074.852.111.95.111.488 0 .735-.203.735-.598 0-.414-.185-.618-.568-.618a1.8 1.8 0 00-.42.062 1.738 1.738 0 01-.4.068c-.198 0-.334-.099-.408-.296-.074-.192-.111-.562-.111-1.1V15.13c0-1.149.148-1.963.438-2.439.426-.697 1.123-1.043 2.099-1.043.49-.006.968.14 1.37.42.37.253.605.617.716 1.08.062.247.093.692.093 1.34v3.45c-.025.68-.192 1.013-.488 1.013-.062 0-.216-.025-.45-.074a1.717 1.717 0 00-.334-.037c-.426 0-.636.19-.636.567 0 .426.247.642.735.642.037 0 .358-.037.97-.11.209-.025.468-.038.79-.038.339 0 .71.025 1.098.074.395.05.673.074.846.074a.806.806 0 00.53-.185.578.578 0 00.223-.463.533.533 0 00-.173-.401.578.578 0 00-.414-.167c-.074 0-.197.013-.376.044a2.47 2.47 0 01-.426.043c-.266 0-.432-.21-.494-.624-.012-.092-.019-.407-.019-.932v-3.487c0-.673-.086-1.223-.259-1.636-.203-.506-.605-.92-1.191-1.26a3.67 3.67 0 00-1.87-.506c-1.223 0-2.198.47-2.933 1.395v-.524zm-10.456-.031c0-.34-.155-.513-.476-.506-.098 0-.253.006-.456.024-.204.013-.365.025-.476.025-.148 0-.37-.012-.679-.037a5.548 5.548 0 00-.438-.019c-.543 0-.809.198-.809.587 0 .401.222.605.673.605.099 0 .229-.019.408-.062.172-.043.302-.062.388-.062.309 0 .463.284.476.846v7.08c-.013 1.087-.043 1.747-.099 1.988-.056.24-.198.358-.426.358-.093 0-.247-.019-.45-.062-.161-.03-.272-.05-.346-.05-.414 0-.618.198-.618.581 0 .167.075.315.216.445.142.13.321.19.531.19.16 0 .482-.03.97-.092.197-.024.444-.037.734-.037.537 0 .938.019 1.21.056.364.05.636.074.82.074.507 0 .766-.204.766-.605s-.197-.605-.586-.605c-.086 0-.21.019-.383.056a1.998 1.998 0 01-.382.055c-.278 0-.457-.191-.531-.568-.025-.136-.037-.438-.037-.901v-1.525c.66.741 1.524 1.118 2.586 1.118 1.284 0 2.309-.463 3.074-1.39.766-.925 1.148-2.16 1.148-3.715 0-1.445-.358-2.587-1.08-3.432-.722-.846-1.698-1.266-2.92-1.266-1.191 0-2.123.482-2.808 1.432v-.586zm.277 2.24a2.32 2.32 0 01.877-1.345c.463-.352.988-.531 1.574-.531 1.74 0 2.611 1.228 2.611 3.673 0 1.185-.24 2.099-.728 2.74-.482.643-1.167.964-2.05.964-.592 0-1.086-.149-1.481-.439-.401-.296-.667-.63-.803-1-.135-.376-.203-.969-.203-1.79v-.26c.012-.129.018-.221.018-.27.013-.686.074-1.266.185-1.741zm23.55-3.08c-.97 0-1.772.272-2.395.827-.642.55-.963 1.241-.963 2.075 0 .58.154 1.08.475 1.506-1.018.315-1.525.901-1.525 1.759 0 .784.507 1.37 1.525 1.76-1.111.419-1.667 1.123-1.667 2.11 0 .858.402 1.531 1.204 2.019.796.488 1.901.734 3.309.734 1.401 0 2.518-.259 3.345-.777.821-.519 1.235-1.223 1.235-2.111 0-.55-.198-1.044-.593-1.482-.395-.438-.932-.76-1.605-.97-.728-.215-1.672-.326-2.84-.326h-.666c-1.284 0-1.932-.315-1.932-.95 0-.21.068-.39.204-.544a.602.602 0 01.463-.228c.13 0 .296.043.494.13.728.314 1.426.474 2.105.474.963 0 1.759-.283 2.4-.845.637-.568.958-1.266.958-2.111 0-1.05-.47-1.89-1.395-2.513.012-.808.34-1.21.987-1.21a.92.92 0 01.753.365c-.265.21-.4.407-.4.605a.614.614 0 00.215.475.729.729 0 00.512.204c.254 0 .476-.105.667-.315a1.08 1.08 0 00.284-.753c0-.45-.191-.821-.568-1.118-.383-.29-.852-.438-1.413-.438-1.334 0-2.031.599-2.093 1.796a4.597 4.597 0 00-1.08-.148zm.061 8.327c.97 0 1.723.142 2.26.433.537.29.808.69.808 1.203 0 .488-.284.877-.851 1.173-.568.29-1.346.438-2.328.438-.932 0-1.672-.142-2.228-.432-.55-.29-.827-.685-.827-1.185s.284-.895.846-1.191c.567-.29 1.339-.439 2.32-.439zm-.006-7.117c.587 0 1.074.173 1.463.513.395.339.587.777.587 1.302 0 .512-.192.932-.574 1.265-.383.328-.883.494-1.494.494-.587 0-1.068-.166-1.432-.494-.364-.327-.55-.765-.55-1.302v-.111c.037-.475.247-.87.624-1.192.382-.314.84-.475 1.376-.475zm-67.95 4.611c.012-.494.228-.74.654-.74.426 0 .636.277.636.833 0 1.315-.167 2.234-.506 2.753-.457.704-1.204 1.05-2.247 1.05-.963 0-1.642-.31-2.05-.927-.302-.45-.45-1.21-.45-2.284V12.63c0-.253-.118-.383-.352-.383h-.593a.67.67 0 01-.494-.191.636.636 0 01-.006-.914.574.574 0 01.426-.198h.71c.204 0 .309-.117.309-.345V8.735c0-.457.234-.692.71-.692.432 0 .654.229.654.692v1.938c0 .179.111.271.327.271h1.975c.457 0 .692.21.692.636 0 .45-.247.673-.741.673h-1.994c-.166 0-.253.13-.253.383v4.457c0 1.271.42 1.9 1.266 1.9.845 0 1.296-.512 1.327-1.536v-1.16zm5.148-1.598v2.358c0 .604.006.963.018 1.067.062.544.223.815.488.815.062 0 .21-.024.45-.08a.993.993 0 01.272-.03c.457 0 .692.197.692.592a.518.518 0 01-.229.426.923.923 0 01-.574.179c-.191 0-.488-.025-.883-.08a6.887 6.887 0 00-.882-.08 8.45 8.45 0 00-1.056.073c-.475.062-.79.093-.944.093-.488 0-.729-.204-.729-.605 0-.395.204-.593.624-.593.099 0 .24.019.432.05.191.03.333.043.432.043.29 0 .47-.383.53-1.16V13.13c-.06-.76-.246-1.142-.549-1.142-.098 0-.234.024-.413.061a1.819 1.819 0 01-.395.062c-.438 0-.66-.191-.66-.58 0-.408.265-.617.796-.617.228 0 .395.006.487.018.39.05.636.074.741.074.099 0 .247-.012.444-.043.198-.03.346-.043.445-.043.352 0 .525.234.525.71 0 .049-.007.123-.013.216-.012.098-.012.173-.012.216-.012.098-.019.475-.031 1.123 0 .488-.006.994-.006 1.513zm-.938-4.747a.979.979 0 01-.716-.297.979.979 0 01-.297-.716c0-.278.099-.512.297-.71a.998.998 0 01.716-.29c.277 0 .518.099.716.29a.955.955 0 01.296.71.979.979 0 01-.296.716.989.989 0 01-.716.297zm6.395 1.493v.519c.722-.92 1.691-1.377 2.9-1.377a3.62 3.62 0 011.847.5c.58.334.975.747 1.179 1.241.166.414.253.95.253 1.611v3.445c0 .518.006.827.018.926.062.407.222.617.488.617a2.47 2.47 0 00.426-.043c.173-.031.296-.05.37-.05.154 0 .29.056.408.16.117.112.172.242.172.402a.588.588 0 01-.216.457.818.818 0 01-.524.179c-.167 0-.445-.025-.834-.074a8.607 8.607 0 00-1.086-.074c-.315 0-.574.012-.778.037a29.65 29.65 0 01-.963.11c-.481 0-.722-.209-.722-.635 0-.37.21-.562.63-.562.098 0 .21.013.333.037.234.05.383.074.444.074.297 0 .457-.333.482-1v-3.407c0-.642-.031-1.08-.093-1.321-.11-.457-.345-.815-.703-1.068a2.303 2.303 0 00-1.352-.413c-.963 0-1.655.345-2.074 1.03-.29.47-.433 1.278-.433 2.414v2.407c0 .531.038.895.112 1.087.074.191.203.29.4.29.1 0 .23-.025.402-.062.167-.043.309-.061.42-.061.376 0 .562.203.562.604 0 .396-.241.593-.723.593-.098 0-.413-.037-.944-.111a6.47 6.47 0 00-.889-.056c-.253 0-.593.025-1.012.074-.531.062-.834.093-.908.093-.506 0-.759-.204-.759-.617 0-.39.198-.58.593-.58.061 0 .172.018.34.055.166.037.326.056.487.056.37 0 .561-.352.574-1.05v-4.84c-.025-.413-.074-.69-.155-.845-.08-.148-.216-.228-.413-.228-.087 0-.21.018-.377.055-.166.037-.29.056-.376.056-.445 0-.667-.198-.667-.587 0-.407.272-.605.815-.605.074 0 .13.007.179.019l.673.074c.191 0 .364-.019.506-.043.315-.031.475-.043.488-.043.327-.019.5.166.5.53zm11.253 1.192l2.086 6.123 2.21-6.037c.062-.173.093-.302.093-.401 0-.204-.136-.309-.414-.309-.142 0-.26.013-.346.037a3.81 3.81 0 01-.382.037c-.402 0-.6-.19-.6-.58 0-.407.26-.617.779-.617.074 0 .191.012.364.037l.654.093c.167.024.352.037.543.037.204 0 .507-.025.908-.08a7.01 7.01 0 01.907-.08c.519 0 .778.203.778.604 0 .395-.198.586-.599.586a.75.75 0 01-.271-.037 1.667 1.667 0 00-.328-.055c-.228 0-.463.308-.71.926l-2.462 6.16c-.544 1.364-1.056 2.358-1.544 2.97-.82 1.049-1.851 1.58-3.08 1.58-.734 0-1.358-.192-1.858-.562-.5-.377-.753-.827-.753-1.358 0-.377.111-.68.327-.914.216-.234.5-.352.852-.352a.99.99 0 01.691.247c.18.16.272.365.272.605 0 .39-.179.636-.525.741.18.265.525.401 1.031.401.642 0 1.216-.24 1.729-.716.512-.475.771-1.012.771-1.605 0-.302-.16-.864-.487-1.685l-1.994-5.037-.216-.58c-.204-.543-.439-.815-.71-.815-.074 0-.204.019-.39.043-.184.031-.308.043-.37.043-.425 0-.635-.19-.635-.58 0-.407.277-.617.833-.617.18 0 .321.006.42.018l.722.105h.148c.087.013.154.019.216.019.432 0 .901-.025 1.395-.087.377-.043.624-.061.741-.061.506 0 .76.197.76.598 0 .402-.23.6-.692.6-.074 0-.185-.013-.346-.038a2.441 2.441 0 00-.345-.037c-.167 0-.254.087-.254.253.013.111.038.229.08.377z" fill-rule="evenodd"/></svg>