<svg width="72" height="101" viewBox="0 0 72 101" xmlns="http://www.w3.org/2000/svg"><path d="M31.384 97.435c-1.524.182-2.665.273-3.421.273-.757 0-1.927-.091-3.512-.273.253-1.59.425-2.924.516-4.006.136-1.623.206-2.323.247-4.897.042-2.573.132-7.037 0-10.486-.06-1.574-.226-5.901-1.5-12.358-.283-1.432-.86-4.684-2.797-9.415-.366-.894-1.158-3.098-3.148-6.104-.477-.72-1.426-1.853-2.848-3.398 1.145.623 1.998 1.16 2.56 1.608.37.297 1.767 1.462 3 3.127 1.564 2.115 3.058 4.959 3.97 7.01.72 1.619 2.836 6.049 4.8 13.724.244.955.938 3.372 1.673 7.537.217 1.228.521 3.432.914 6.612l-.454 11.046zm.515.72l.554-11.952c1.077-5.991 2.069-10.146 2.975-12.464.906-2.317 2.724-5.35 5.454-9.099 1.495-1.426 2.656-2.392 3.481-2.898.825-.506 2.103-1.034 3.831-1.585 1.158-.17 2.013-.256 2.564-.256.55 0 1.507.086 2.868.256-1.191.103-2.147.304-2.868.603-.518.214-4.192 1.027-7.995 6.23-1.498 2.048-2.36 3.786-3.743 9.2-1.383 5.416-1.482 9.406-1.525 10.828-.028.948-.028 2.802 0 5.56L35.91 97.86c-.658.17-1.168.27-1.529.296-.36.026-1.188.026-2.482 0zm.315-14.874c-.496-3.98-.941-6.886-1.335-8.716-.394-1.83-1.045-4.015-1.952-6.555-1.28-15.886-2.55-26.243-3.813-31.072-.852-3.258-2.457-11.052-6.124-20.076-.803-1.974-3.015-7.718-6.416-11.983-.67-.84-3.01-3.76-6.022-3.541-1.18.085-3.374 1.45-6.582 4.094.583-1.095 1.086-1.85 1.51-2.262.266-.26 1.144-1.243 2.845-2.163.434-.235 2.672-1.481 5.782-.711 1.102.272 2.978 1.328 5.628 3.166 2.83 3.165 4.786 5.533 5.867 7.106 4.257 6.196 6.67 11.707 7.962 15.58 1.784 5.347 3.721 17.41 5.813 36.19l.434 8.973c-1.035 1.867-1.697 3.28-1.985 4.24-.289.958-.826 3.535-1.612 7.73zm-7.582 15.448l-1.349-.064a93.143 93.143 0 00-.989-2.873c-.287-.786-.732-1.943-1.335-3.472.977 1.387 1.66 2.421 2.05 3.101.39.68.93 1.783 1.623 3.308zm-5.23-1.208a3.341 3.341 0 00-.262-.92c-.139-.32-.39-.793-.755-1.422.683.522 1.158.913 1.424 1.171.266.259.595.649.987 1.171H19.4zm16.973 1.257c.436-1.88.774-3.225 1.013-4.034.238-.81.74-2.183 1.505-4.12-.292 2.503-.45 4.404-.471 5.702-.022 1.298.088 2.115.332 2.452-.523.115-.896.172-1.12.172-.224 0-.644-.057-1.26-.172zm4.466-1.67c.649-.777 1.156-1.345 1.521-1.705.366-.36.873-.79 1.522-1.29-.567.733-.954 1.29-1.162 1.67a4.922 4.922 0 00-.476 1.326 3.582 3.582 0 01-.681.088c-.168 0-.409-.03-.724-.088zm13.057 2.405c-.48.178-.794.266-.942.266-.147 0-.436-.088-.865-.266.103-.636.103-1.371 0-2.206s-.36-2.183-.772-4.046c.867 1.541 1.413 2.583 1.637 3.126.224.543.538 1.585.942 3.126zm-4.741-1.327c.113-.235.113-.53 0-.889-.114-.358-.37-.87-.769-1.54.588.405.987.735 1.197.993.21.258.469.736.778 1.436h-1.206zm7.073 1.22c.186-4.39.186-7.514 0-9.372-.13-1.294-.657-5.256-3.004-7.816-.683-.745-2.156-1.305-4.42-1.681 1.849-.373 3.254-.44 4.216-.2.666.167 2.462.67 4.444 2.89.42.47 1.829 2.084 2.842 5.367.213.69.75 2.418.811 6.681.011.775-.11 2.32-.367 4.636-1.097.213-1.934.288-2.51.223-.577-.064-1.247-.307-2.012-.728zm5.158-.133c.163-2.544.232-4.32.207-5.326-.026-1.006-.144-2.463-.355-4.37.377-3.149.769-5.371 1.176-6.668 1.546-4.92 3.446-7.747 4.197-8.777 1.048-1.437 2.87-3.208 5.465-5.312-2.905 4.306-4.831 8.316-5.78 12.03-.948 3.713-1.515 8.982-1.703 15.807-.208.589-.36 1.037-.454 1.345-.094.308-.224.783-.39 1.424-.6.096-1.044.135-1.335.116-.29-.019-.633-.108-1.028-.269zm-.432-11.401c-.678-1.607-1.218-2.757-1.62-3.447-.401-.691-.946-1.41-1.636-2.157 1.31-12.498 2.396-21.59 3.256-27.277.86-5.686 2.16-12.345 3.896-19.977-.69 13.11-1.131 22.8-1.322 29.073-.19 6.271-.19 11.075 0 14.41-.942 1.96-1.545 3.42-1.809 4.381-.264.962-.519 2.626-.765 4.994zm2.934 12.224c.717-2.396 1.207-3.99 1.472-4.785.264-.793.755-2.145 1.471-4.055-.328 2.242-.551 3.927-.67 5.055a68.48 68.48 0 00-.28 3.935c-.424.087-.799.107-1.126.06l-.867-.21zm3.803-1.211c.645-.79 1.145-1.36 1.5-1.708.356-.348 1.05-.95 2.084-1.805-.746.987-1.282 1.765-1.609 2.333-.327.567-.528 1.072-.604 1.515-.415.033-.69.033-.827 0-.136-.034-.318-.145-.544-.335z" fill-rule="evenodd"/></svg>