<svg width="100" height="98" viewBox="0 0 100 98" xmlns="http://www.w3.org/2000/svg"><path d="M0 0h100v97.5H0V0zm34.708 55.208H48l3.458 12.542c.084.292.292.375.625.375H59c.333 0 .417-.208.333-.542l-13.25-44.958c-.083-.333-.208-.417-.5-.417h-8.75c-.208 0-.333.125-.333.417-.083 2.042-.208 2.708-.417 3.458L24.25 67.5c-.083.5 0 .625.417.625h6.125c.416 0 .541-.083.625-.417l3.291-12.5zm30.334-29.916c0 2.75 1.75 4.25 4.166 4.25 2.542 0 4.334-1.5 4.334-4.25 0-2.542-1.709-4.25-4.25-4.25-2.375 0-4.25 1.583-4.25 4.25zm.5 9.458h.041v32.833c0 .334.125.542.542.542h6.458c.417 0 .5-.167.5-.5V34.75c0-.375-.166-.5-.5-.5h-6.541c-.375 0-.5.167-.5.5zm-19.25 13.708h-9.875C38.167 42 40.375 33.75 41.25 28.875h.083c1.042 4.875 3.792 14.958 4.959 19.583z" fill-rule="evenodd"/></svg>