<svg width="100" height="98" viewBox="0 0 100 98" xmlns="http://www.w3.org/2000/svg"><path d="M83.5 97.273h-67c-9.09 0-16.5-7.41-16.5-16.546V16.545C0 7.41 7.41 0 16.5 0h66.955c9.136 0 16.5 7.41 16.5 16.5v64.227C100 89.864 92.59 97.273 83.5 97.273zm-61.682-76.91v48.864c0 .41.182.546.546.546h6.954c.41 0 .546-.182.546-.546V51.773c1.227 0 1.818.09 3.545.09 10.273 0 18.636-4.954 18.636-16.5 0-8.863-4.909-15.772-17.5-15.772-4.5 0-8.818.09-11.727.227-.363 0-1 .227-1 .546zM69 39.092c2.955 0 5.91.773 7.91 2.045.454.137.68-.09.68-.454v-6.227c0-.319-.09-.682-.454-.91-1.5-.681-4.227-1.272-8.136-1.272-7.955 0-12.545 4.863-12.545 10.727 0 5.227 2.681 8.364 9.136 11.455 4.59 2.363 5.636 3.818 5.636 5.454 0 2.046-1.5 3.546-5.09 3.546-3 0-6.273-.819-9.137-2.682-.318-.228-.545-.091-.545.363v6.682c0 .364.045.591.363.727 1.955 1.137 5.364 1.955 9.318 1.955 7.5 0 13.046-3.91 13.046-11.182 0-4.863-2.227-8.182-9.364-11.636-4.818-2.5-5.636-3.637-5.636-5.273 0-1.5 1.227-3.318 4.818-3.318zM29.91 44.5V26.955a80.448 80.448 0 014.363-.137c6.045 0 9.636 2.91 9.636 8.682 0 7.227-5 9.09-10.318 9.09-1.818 0-2.636 0-3.682-.09z" fill-rule="evenodd"/></svg>