<svg width="87" height="100" viewBox="0 0 87 100" xmlns="http://www.w3.org/2000/svg"><path d="M62.069 11.52C62.069 5.118 67.816 0 74.138 0c6.322 0 12.069 4.641 12.069 12.069v71.865c0 8.778-6.322 12.618-12.07 12.618-6.206 0-12.068-4.515-12.068-12.618V11.52zM30.651 49.78c0-6.584 5.573-11.849 11.704-11.849 6.13 0 11.703 4.774 11.703 12.414v36.113c0 9.028-6.13 12.978-11.703 12.978-6.02 0-11.704-4.644-11.704-12.978V49.78zM11.703 99.437C5.24 99.436 0 94.13 0 87.586s5.24-11.85 11.703-11.85c6.464 0 11.704 5.306 11.704 11.85s-5.24 11.85-11.704 11.85z" fill-rule="evenodd"/></svg>